M48
; DRILL file {KiCad 5.1.5+dfsg1-2build2} date Mo 06 Jul 2020 20:35:26 CEST
; FORMAT={-:-/ absolute / inch / decimal}
; #@! TF.CreationDate,2020-07-06T20:35:26+02:00
; #@! TF.GenerationSoftware,Kicad,Pcbnew,5.1.5+dfsg1-2build2
; #@! TF.FileFunction,Plated,1,2,PTH
FMAT,2
INCH
T1C0.0118
T2C0.0335
T3C0.0750
%
G90
G05
T1
X4.0157Y-4.0315
X4.0236Y-3.2362
X4.0551Y-4.1535
X4.0679Y-3.7215
X4.0945Y-4.0315
X4.1024Y-3.7205
X4.126Y-4.1535
X4.626Y-2.8287
X4.7559Y-2.7559
X4.8583Y-2.8661
X4.9035Y-3.3012
X5.0039Y-4.563
X5.0433Y-2.7283
X5.138Y-3.1357
X5.248Y-3.5354
X5.5039Y-3.7598
X5.5197Y-3.7126
X5.5315Y-2.5787
X5.6142Y-3.7756
X5.6181Y-2.5236
X5.7087Y-2.0866
X5.7087Y-5.5118
X5.7323Y-2.6339
X5.7461Y-2.8878
X5.748Y-4.1575
X5.7913Y-4.1181
X5.8287Y-3.2087
X5.8346Y-2.6181
X5.8406Y-3.9272
X5.8409Y-3.8883
X5.8583Y-4.1457
X5.8703Y-3.9687
X5.878Y-4.0315
X5.9961Y-2.9055
X6.0236Y-3.189
X6.0512Y-2.9134
X6.063Y-3.6102
X6.063Y-3.7638
X6.063Y-4.1063
X6.0984Y-4.2087
X6.2047Y-4.3307
X6.2067Y-3.5433
X6.2165Y-4.1929
X6.2441Y-3.0354
X6.378Y-4.9803
X6.3809Y-4.8819
X6.4094Y-3.2795
X6.4567Y-3.5512
X6.4567Y-4.3189
X6.4843Y-5.0669
X6.4951Y-2.9734
X6.4961Y-2.9055
X6.4961Y-4.8976
X6.4961Y-4.9764
X6.5089Y-4.6663
X6.5236Y-2.8071
X6.5315Y-4.0433
X6.5748Y-3.3346
X6.6181Y-3.5433
X6.626Y-2.8898
X6.626Y-4.3386
X6.6299Y-2.9764
X6.6378Y-3.937
X6.6441Y-4.5114
X6.6535Y-4.2126
X6.6732Y-3.8307
X6.685Y-3.6614
X6.752Y-4.8583
X6.7559Y-3.9921
X6.8701Y-3.7362
X6.8898Y-3.0709
X6.8898Y-3.5827
X6.8898Y-4.0945
X6.8898Y-4.2913
X6.9291Y-3.874
X6.9291Y-4.0157
X7.2913Y-4.1535
X7.3228Y-4.0315
X7.3622Y-4.1535
X7.3661Y-3.6929
X7.3937Y-3.6496
X7.4016Y-4.0315
T2
X4.7963Y-3.4752
X4.8463Y-3.3752
X4.8963Y-3.4752
X4.9463Y-3.3752
X4.9963Y-3.4752
X5.0463Y-3.3752
X5.5337Y-2.8059
X5.5837Y-2.7059
X5.6337Y-2.8059
X5.6837Y-2.7059
X5.7337Y-2.8059
X5.7837Y-2.7059
X5.8337Y-2.8059
X5.8837Y-2.7059
X4.7963Y-4.4988
X4.8463Y-4.3988
X4.8963Y-4.4988
X4.9463Y-4.3988
X4.9963Y-4.4988
X5.0463Y-4.3988
T3
X6.1614Y-2.937
X6.7327Y-2.7004
X6.7327Y-3.1736
X6.8307Y-2.937
X6.1614Y-4.937
X6.7327Y-4.7004
X6.7327Y-5.1736
X6.8307Y-4.937
T0
M30
