G04 #@! TF.GenerationSoftware,KiCad,Pcbnew,5.1.5+dfsg1-2build2*
G04 #@! TF.CreationDate,2020-07-06T20:33:27+02:00*
G04 #@! TF.ProjectId,Quadsense,51756164-7365-46e7-9365-2e6b69636164,rev?*
G04 #@! TF.SameCoordinates,PX5f5e100PY2faf080*
G04 #@! TF.FileFunction,Legend,Bot*
G04 #@! TF.FilePolarity,Positive*
%FSLAX46Y46*%
G04 Gerber Fmt 4.6, Leading zero omitted, Abs format (unit mm)*
G04 Created by KiCad (PCBNEW 5.1.5+dfsg1-2build2) date 2020-07-06 20:33:27*
%MOMM*%
%LPD*%
G04 APERTURE LIST*
%ADD10C,0.300000*%
%ADD11C,0.150000*%
%ADD12C,0.200000*%
%ADD13C,0.010000*%
G04 APERTURE END LIST*
D10*
X50962142Y-75628571D02*
X50676428Y-75628571D01*
X50533571Y-75700000D01*
X50390714Y-75842857D01*
X50319285Y-76128571D01*
X50319285Y-76628571D01*
X50390714Y-76914285D01*
X50533571Y-77057142D01*
X50676428Y-77128571D01*
X50962142Y-77128571D01*
X51105000Y-77057142D01*
X51247857Y-76914285D01*
X51319285Y-76628571D01*
X51319285Y-76128571D01*
X51247857Y-75842857D01*
X51105000Y-75700000D01*
X50962142Y-75628571D01*
X49676428Y-76128571D02*
X49676428Y-77628571D01*
X49676428Y-76200000D02*
X49533571Y-76128571D01*
X49247857Y-76128571D01*
X49105000Y-76200000D01*
X49033571Y-76271428D01*
X48962142Y-76414285D01*
X48962142Y-76842857D01*
X49033571Y-76985714D01*
X49105000Y-77057142D01*
X49247857Y-77128571D01*
X49533571Y-77128571D01*
X49676428Y-77057142D01*
X47747857Y-77057142D02*
X47890714Y-77128571D01*
X48176428Y-77128571D01*
X48319285Y-77057142D01*
X48390714Y-76914285D01*
X48390714Y-76342857D01*
X48319285Y-76200000D01*
X48176428Y-76128571D01*
X47890714Y-76128571D01*
X47747857Y-76200000D01*
X47676428Y-76342857D01*
X47676428Y-76485714D01*
X48390714Y-76628571D01*
X47033571Y-76128571D02*
X47033571Y-77128571D01*
X47033571Y-76271428D02*
X46962142Y-76200000D01*
X46819285Y-76128571D01*
X46605000Y-76128571D01*
X46462142Y-76200000D01*
X46390714Y-76342857D01*
X46390714Y-77128571D01*
X45747857Y-76700000D02*
X45033571Y-76700000D01*
X45890714Y-77128571D02*
X45390714Y-75628571D01*
X44890714Y-77128571D01*
X44390714Y-77128571D02*
X44390714Y-76128571D01*
X44390714Y-75628571D02*
X44462142Y-75700000D01*
X44390714Y-75771428D01*
X44319285Y-75700000D01*
X44390714Y-75628571D01*
X44390714Y-75771428D01*
X43676428Y-77128571D02*
X43676428Y-76128571D01*
X43676428Y-76414285D02*
X43605000Y-76271428D01*
X43533571Y-76200000D01*
X43390714Y-76128571D01*
X43247857Y-76128571D01*
X40605000Y-77271428D02*
X40747857Y-77200000D01*
X40890714Y-77057142D01*
X41105000Y-76842857D01*
X41247857Y-76771428D01*
X41390714Y-76771428D01*
X41319285Y-77128571D02*
X41462142Y-77057142D01*
X41605000Y-76914285D01*
X41676428Y-76628571D01*
X41676428Y-76128571D01*
X41605000Y-75842857D01*
X41462142Y-75700000D01*
X41319285Y-75628571D01*
X41033571Y-75628571D01*
X40890714Y-75700000D01*
X40747857Y-75842857D01*
X40676428Y-76128571D01*
X40676428Y-76628571D01*
X40747857Y-76914285D01*
X40890714Y-77057142D01*
X41033571Y-77128571D01*
X41319285Y-77128571D01*
X39390714Y-76128571D02*
X39390714Y-77128571D01*
X40033571Y-76128571D02*
X40033571Y-76914285D01*
X39962142Y-77057142D01*
X39819285Y-77128571D01*
X39605000Y-77128571D01*
X39462142Y-77057142D01*
X39390714Y-76985714D01*
X38033571Y-77128571D02*
X38033571Y-76342857D01*
X38105000Y-76200000D01*
X38247857Y-76128571D01*
X38533571Y-76128571D01*
X38676428Y-76200000D01*
X38033571Y-77057142D02*
X38176428Y-77128571D01*
X38533571Y-77128571D01*
X38676428Y-77057142D01*
X38747857Y-76914285D01*
X38747857Y-76771428D01*
X38676428Y-76628571D01*
X38533571Y-76557142D01*
X38176428Y-76557142D01*
X38033571Y-76485714D01*
X36676428Y-77128571D02*
X36676428Y-75628571D01*
X36676428Y-77057142D02*
X36819285Y-77128571D01*
X37105000Y-77128571D01*
X37247857Y-77057142D01*
X37319285Y-76985714D01*
X37390714Y-76842857D01*
X37390714Y-76414285D01*
X37319285Y-76271428D01*
X37247857Y-76200000D01*
X37105000Y-76128571D01*
X36819285Y-76128571D01*
X36676428Y-76200000D01*
X36033571Y-77057142D02*
X35890714Y-77128571D01*
X35605000Y-77128571D01*
X35462142Y-77057142D01*
X35390714Y-76914285D01*
X35390714Y-76842857D01*
X35462142Y-76700000D01*
X35605000Y-76628571D01*
X35819285Y-76628571D01*
X35962142Y-76557142D01*
X36033571Y-76414285D01*
X36033571Y-76342857D01*
X35962142Y-76200000D01*
X35819285Y-76128571D01*
X35605000Y-76128571D01*
X35462142Y-76200000D01*
X34176428Y-77057142D02*
X34319285Y-77128571D01*
X34605000Y-77128571D01*
X34747857Y-77057142D01*
X34819285Y-76914285D01*
X34819285Y-76342857D01*
X34747857Y-76200000D01*
X34605000Y-76128571D01*
X34319285Y-76128571D01*
X34176428Y-76200000D01*
X34105000Y-76342857D01*
X34105000Y-76485714D01*
X34819285Y-76628571D01*
X33462142Y-76128571D02*
X33462142Y-77128571D01*
X33462142Y-76271428D02*
X33390714Y-76200000D01*
X33247857Y-76128571D01*
X33033571Y-76128571D01*
X32890714Y-76200000D01*
X32819285Y-76342857D01*
X32819285Y-77128571D01*
X32176428Y-77057142D02*
X32033571Y-77128571D01*
X31747857Y-77128571D01*
X31605000Y-77057142D01*
X31533571Y-76914285D01*
X31533571Y-76842857D01*
X31605000Y-76700000D01*
X31747857Y-76628571D01*
X31962142Y-76628571D01*
X32105000Y-76557142D01*
X32176428Y-76414285D01*
X32176428Y-76342857D01*
X32105000Y-76200000D01*
X31962142Y-76128571D01*
X31747857Y-76128571D01*
X31605000Y-76200000D01*
X30319285Y-77057142D02*
X30462142Y-77128571D01*
X30747857Y-77128571D01*
X30890714Y-77057142D01*
X30962142Y-76914285D01*
X30962142Y-76342857D01*
X30890714Y-76200000D01*
X30747857Y-76128571D01*
X30462142Y-76128571D01*
X30319285Y-76200000D01*
X30247857Y-76342857D01*
X30247857Y-76485714D01*
X30962142Y-76628571D01*
X28676428Y-75628571D02*
X27819285Y-75628571D01*
X28247857Y-77128571D02*
X28247857Y-75628571D01*
X27462142Y-76128571D02*
X27176428Y-77128571D01*
X26890714Y-76414285D01*
X26605000Y-77128571D01*
X26319285Y-76128571D01*
X25747857Y-77128571D02*
X25747857Y-76128571D01*
X25747857Y-75628571D02*
X25819285Y-75700000D01*
X25747857Y-75771428D01*
X25676428Y-75700000D01*
X25747857Y-75628571D01*
X25747857Y-75771428D01*
X25033571Y-76128571D02*
X25033571Y-77128571D01*
X25033571Y-76271428D02*
X24962142Y-76200000D01*
X24819285Y-76128571D01*
X24605000Y-76128571D01*
X24462142Y-76200000D01*
X24390714Y-76342857D01*
X24390714Y-77128571D01*
X22747857Y-75628571D02*
X22247857Y-77128571D01*
X21747857Y-75628571D01*
X20462142Y-77128571D02*
X21319285Y-77128571D01*
X20890714Y-77128571D02*
X20890714Y-75628571D01*
X21033571Y-75842857D01*
X21176428Y-75985714D01*
X21319285Y-76057142D01*
X19819285Y-76985714D02*
X19747857Y-77057142D01*
X19819285Y-77128571D01*
X19890714Y-77057142D01*
X19819285Y-76985714D01*
X19819285Y-77128571D01*
X18819285Y-75628571D02*
X18676428Y-75628571D01*
X18533571Y-75700000D01*
X18462142Y-75771428D01*
X18390714Y-75914285D01*
X18319285Y-76200000D01*
X18319285Y-76557142D01*
X18390714Y-76842857D01*
X18462142Y-76985714D01*
X18533571Y-77057142D01*
X18676428Y-77128571D01*
X18819285Y-77128571D01*
X18962142Y-77057142D01*
X19033571Y-76985714D01*
X19105000Y-76842857D01*
X19176428Y-76557142D01*
X19176428Y-76200000D01*
X19105000Y-75914285D01*
X19033571Y-75771428D01*
X18962142Y-75700000D01*
X18819285Y-75628571D01*
X51247857Y-79678571D02*
X51247857Y-78178571D01*
X50747857Y-79250000D01*
X50247857Y-78178571D01*
X50247857Y-79678571D01*
X48890714Y-79678571D02*
X48890714Y-78892857D01*
X48962142Y-78750000D01*
X49105000Y-78678571D01*
X49390714Y-78678571D01*
X49533571Y-78750000D01*
X48890714Y-79607142D02*
X49033571Y-79678571D01*
X49390714Y-79678571D01*
X49533571Y-79607142D01*
X49605000Y-79464285D01*
X49605000Y-79321428D01*
X49533571Y-79178571D01*
X49390714Y-79107142D01*
X49033571Y-79107142D01*
X48890714Y-79035714D01*
X47533571Y-79678571D02*
X47533571Y-78178571D01*
X47533571Y-79607142D02*
X47676428Y-79678571D01*
X47962142Y-79678571D01*
X48105000Y-79607142D01*
X48176428Y-79535714D01*
X48247857Y-79392857D01*
X48247857Y-78964285D01*
X48176428Y-78821428D01*
X48105000Y-78750000D01*
X47962142Y-78678571D01*
X47676428Y-78678571D01*
X47533571Y-78750000D01*
X46247857Y-79607142D02*
X46390714Y-79678571D01*
X46676428Y-79678571D01*
X46819285Y-79607142D01*
X46890714Y-79464285D01*
X46890714Y-78892857D01*
X46819285Y-78750000D01*
X46676428Y-78678571D01*
X46390714Y-78678571D01*
X46247857Y-78750000D01*
X46176428Y-78892857D01*
X46176428Y-79035714D01*
X46890714Y-79178571D01*
X44533571Y-78678571D02*
X44247857Y-79678571D01*
X43962142Y-78964285D01*
X43676428Y-79678571D01*
X43390714Y-78678571D01*
X42819285Y-79678571D02*
X42819285Y-78678571D01*
X42819285Y-78178571D02*
X42890714Y-78250000D01*
X42819285Y-78321428D01*
X42747857Y-78250000D01*
X42819285Y-78178571D01*
X42819285Y-78321428D01*
X42319285Y-78678571D02*
X41747857Y-78678571D01*
X42105000Y-78178571D02*
X42105000Y-79464285D01*
X42033571Y-79607142D01*
X41890714Y-79678571D01*
X41747857Y-79678571D01*
X41247857Y-79678571D02*
X41247857Y-78178571D01*
X40605000Y-79678571D02*
X40605000Y-78892857D01*
X40676428Y-78750000D01*
X40819285Y-78678571D01*
X41033571Y-78678571D01*
X41176428Y-78750000D01*
X41247857Y-78821428D01*
X38033571Y-79678571D02*
X38747857Y-79678571D01*
X38747857Y-78178571D01*
X37319285Y-79678571D02*
X37462142Y-79607142D01*
X37533571Y-79535714D01*
X37605000Y-79392857D01*
X37605000Y-78964285D01*
X37533571Y-78821428D01*
X37462142Y-78750000D01*
X37319285Y-78678571D01*
X37105000Y-78678571D01*
X36962142Y-78750000D01*
X36890714Y-78821428D01*
X36819285Y-78964285D01*
X36819285Y-79392857D01*
X36890714Y-79535714D01*
X36962142Y-79607142D01*
X37105000Y-79678571D01*
X37319285Y-79678571D01*
X36319285Y-78678571D02*
X35962142Y-79678571D01*
X35605000Y-78678571D01*
X34462142Y-79607142D02*
X34605000Y-79678571D01*
X34890714Y-79678571D01*
X35033571Y-79607142D01*
X35105000Y-79464285D01*
X35105000Y-78892857D01*
X35033571Y-78750000D01*
X34890714Y-78678571D01*
X34605000Y-78678571D01*
X34462142Y-78750000D01*
X34390714Y-78892857D01*
X34390714Y-79035714D01*
X35105000Y-79178571D01*
X32605000Y-79678571D02*
X32605000Y-78678571D01*
X32605000Y-78178571D02*
X32676428Y-78250000D01*
X32605000Y-78321428D01*
X32533571Y-78250000D01*
X32605000Y-78178571D01*
X32605000Y-78321428D01*
X31890714Y-78678571D02*
X31890714Y-79678571D01*
X31890714Y-78821428D02*
X31819285Y-78750000D01*
X31676428Y-78678571D01*
X31462142Y-78678571D01*
X31319285Y-78750000D01*
X31247857Y-78892857D01*
X31247857Y-79678571D01*
X28533571Y-79535714D02*
X28605000Y-79607142D01*
X28819285Y-79678571D01*
X28962142Y-79678571D01*
X29176428Y-79607142D01*
X29319285Y-79464285D01*
X29390714Y-79321428D01*
X29462142Y-79035714D01*
X29462142Y-78821428D01*
X29390714Y-78535714D01*
X29319285Y-78392857D01*
X29176428Y-78250000D01*
X28962142Y-78178571D01*
X28819285Y-78178571D01*
X28605000Y-78250000D01*
X28533571Y-78321428D01*
X27676428Y-79678571D02*
X27819285Y-79607142D01*
X27890714Y-79535714D01*
X27962142Y-79392857D01*
X27962142Y-78964285D01*
X27890714Y-78821428D01*
X27819285Y-78750000D01*
X27676428Y-78678571D01*
X27462142Y-78678571D01*
X27319285Y-78750000D01*
X27247857Y-78821428D01*
X27176428Y-78964285D01*
X27176428Y-79392857D01*
X27247857Y-79535714D01*
X27319285Y-79607142D01*
X27462142Y-79678571D01*
X27676428Y-79678571D01*
X26319285Y-79678571D02*
X26462142Y-79607142D01*
X26533571Y-79464285D01*
X26533571Y-78178571D01*
X25533571Y-79678571D02*
X25676428Y-79607142D01*
X25747857Y-79535714D01*
X25819285Y-79392857D01*
X25819285Y-78964285D01*
X25747857Y-78821428D01*
X25676428Y-78750000D01*
X25533571Y-78678571D01*
X25319285Y-78678571D01*
X25176428Y-78750000D01*
X25105000Y-78821428D01*
X25033571Y-78964285D01*
X25033571Y-79392857D01*
X25105000Y-79535714D01*
X25176428Y-79607142D01*
X25319285Y-79678571D01*
X25533571Y-79678571D01*
X23747857Y-78678571D02*
X23747857Y-79892857D01*
X23819285Y-80035714D01*
X23890714Y-80107142D01*
X24033571Y-80178571D01*
X24247857Y-80178571D01*
X24390714Y-80107142D01*
X23747857Y-79607142D02*
X23890714Y-79678571D01*
X24176428Y-79678571D01*
X24319285Y-79607142D01*
X24390714Y-79535714D01*
X24462142Y-79392857D01*
X24462142Y-78964285D01*
X24390714Y-78821428D01*
X24319285Y-78750000D01*
X24176428Y-78678571D01*
X23890714Y-78678571D01*
X23747857Y-78750000D01*
X23033571Y-78678571D02*
X23033571Y-79678571D01*
X23033571Y-78821428D02*
X22962142Y-78750000D01*
X22819285Y-78678571D01*
X22605000Y-78678571D01*
X22462142Y-78750000D01*
X22390714Y-78892857D01*
X22390714Y-79678571D01*
X21105000Y-79607142D02*
X21247857Y-79678571D01*
X21533571Y-79678571D01*
X21676428Y-79607142D01*
X21747857Y-79464285D01*
X21747857Y-78892857D01*
X21676428Y-78750000D01*
X21533571Y-78678571D01*
X21247857Y-78678571D01*
X21105000Y-78750000D01*
X21033571Y-78892857D01*
X21033571Y-79035714D01*
X21747857Y-79178571D01*
X51247857Y-82228571D02*
X51247857Y-80728571D01*
X51247857Y-81300000D02*
X51105000Y-81228571D01*
X50819285Y-81228571D01*
X50676428Y-81300000D01*
X50605000Y-81371428D01*
X50533571Y-81514285D01*
X50533571Y-81942857D01*
X50605000Y-82085714D01*
X50676428Y-82157142D01*
X50819285Y-82228571D01*
X51105000Y-82228571D01*
X51247857Y-82157142D01*
X50033571Y-81228571D02*
X49676428Y-82228571D01*
X49319285Y-81228571D02*
X49676428Y-82228571D01*
X49819285Y-82585714D01*
X49890714Y-82657142D01*
X50033571Y-82728571D01*
X47605000Y-82228571D02*
X47605000Y-80728571D01*
X47033571Y-80728571D01*
X46890714Y-80800000D01*
X46819285Y-80871428D01*
X46747857Y-81014285D01*
X46747857Y-81228571D01*
X46819285Y-81371428D01*
X46890714Y-81442857D01*
X47033571Y-81514285D01*
X47605000Y-81514285D01*
X46105000Y-82228571D02*
X46105000Y-81228571D01*
X46105000Y-81514285D02*
X46033571Y-81371428D01*
X45962142Y-81300000D01*
X45819285Y-81228571D01*
X45676428Y-81228571D01*
X44605000Y-82157142D02*
X44747857Y-82228571D01*
X45033571Y-82228571D01*
X45176428Y-82157142D01*
X45247857Y-82014285D01*
X45247857Y-81442857D01*
X45176428Y-81300000D01*
X45033571Y-81228571D01*
X44747857Y-81228571D01*
X44605000Y-81300000D01*
X44533571Y-81442857D01*
X44533571Y-81585714D01*
X45247857Y-81728571D01*
X43962142Y-82157142D02*
X43819285Y-82228571D01*
X43533571Y-82228571D01*
X43390714Y-82157142D01*
X43319285Y-82014285D01*
X43319285Y-81942857D01*
X43390714Y-81800000D01*
X43533571Y-81728571D01*
X43747857Y-81728571D01*
X43890714Y-81657142D01*
X43962142Y-81514285D01*
X43962142Y-81442857D01*
X43890714Y-81300000D01*
X43747857Y-81228571D01*
X43533571Y-81228571D01*
X43390714Y-81300000D01*
X42747857Y-82157142D02*
X42605000Y-82228571D01*
X42319285Y-82228571D01*
X42176428Y-82157142D01*
X42105000Y-82014285D01*
X42105000Y-81942857D01*
X42176428Y-81800000D01*
X42319285Y-81728571D01*
X42533571Y-81728571D01*
X42676428Y-81657142D01*
X42747857Y-81514285D01*
X42747857Y-81442857D01*
X42676428Y-81300000D01*
X42533571Y-81228571D01*
X42319285Y-81228571D01*
X42176428Y-81300000D01*
X40319285Y-81442857D02*
X39819285Y-81442857D01*
X39605000Y-82228571D02*
X40319285Y-82228571D01*
X40319285Y-80728571D01*
X39605000Y-80728571D01*
X39105000Y-81228571D02*
X38747857Y-82228571D01*
X38390714Y-81228571D01*
X37247857Y-82157142D02*
X37390714Y-82228571D01*
X37676428Y-82228571D01*
X37819285Y-82157142D01*
X37890714Y-82014285D01*
X37890714Y-81442857D01*
X37819285Y-81300000D01*
X37676428Y-81228571D01*
X37390714Y-81228571D01*
X37247857Y-81300000D01*
X37176428Y-81442857D01*
X37176428Y-81585714D01*
X37890714Y-81728571D01*
X36533571Y-82228571D02*
X36533571Y-81228571D01*
X36533571Y-81514285D02*
X36462142Y-81371428D01*
X36390714Y-81300000D01*
X36247857Y-81228571D01*
X36105000Y-81228571D01*
X35747857Y-81228571D02*
X35390714Y-82228571D01*
X35033571Y-81228571D02*
X35390714Y-82228571D01*
X35533571Y-82585714D01*
X35605000Y-82657142D01*
X35747857Y-82728571D01*
X33319285Y-82228571D02*
X33319285Y-80728571D01*
X32462142Y-82228571D02*
X33104999Y-81371428D01*
X32462142Y-80728571D02*
X33319285Y-81585714D01*
X31247857Y-82157142D02*
X31390714Y-82228571D01*
X31676428Y-82228571D01*
X31819285Y-82157142D01*
X31890714Y-82014285D01*
X31890714Y-81442857D01*
X31819285Y-81300000D01*
X31676428Y-81228571D01*
X31390714Y-81228571D01*
X31247857Y-81300000D01*
X31176428Y-81442857D01*
X31176428Y-81585714D01*
X31890714Y-81728571D01*
X30676428Y-81228571D02*
X30319285Y-82228571D01*
X29962142Y-81228571D02*
X30319285Y-82228571D01*
X30462142Y-82585714D01*
X30533571Y-82657142D01*
X30676428Y-82728571D01*
D11*
X61100000Y-27650000D02*
X59500000Y-27650000D01*
X61100000Y-26550000D02*
X59500000Y-26550000D01*
X69000000Y-72850000D02*
X70600000Y-72850000D01*
X69000000Y-73950000D02*
X70600000Y-73950000D01*
X76550000Y-49200000D02*
X76550000Y-50800000D01*
X75450000Y-49200000D02*
X75450000Y-50800000D01*
X54550000Y-55200000D02*
X54550000Y-56800000D01*
X53450000Y-55200000D02*
X53450000Y-56800000D01*
X51550000Y-30500000D02*
X51550000Y-31500000D01*
X54450000Y-30500000D02*
X54450000Y-31500000D01*
D12*
X51300000Y-30500000D02*
G75*
G03X51300000Y-30500000I-100000J0D01*
G01*
D11*
X52200000Y-35450000D02*
X53800000Y-35450000D01*
X52200000Y-36550000D02*
X53800000Y-36550000D01*
X52200000Y-33450000D02*
X53800000Y-33450000D01*
X52200000Y-34550000D02*
X53800000Y-34550000D01*
X55450000Y-31800000D02*
X55450000Y-30200000D01*
X56550000Y-31800000D02*
X56550000Y-30200000D01*
X21750000Y-24300000D02*
X21750000Y-22700000D01*
X22850000Y-24300000D02*
X22850000Y-22700000D01*
X52200000Y-24450000D02*
X53800000Y-24450000D01*
X52200000Y-25550000D02*
X53800000Y-25550000D01*
X52200000Y-26450000D02*
X53800000Y-26450000D01*
X52200000Y-27550000D02*
X53800000Y-27550000D01*
X64450000Y-18800000D02*
X64450000Y-20400000D01*
X65550000Y-18800000D02*
X65550000Y-20400000D01*
X59500000Y-75950000D02*
X61100000Y-75950000D01*
X59500000Y-74850000D02*
X61100000Y-74850000D01*
X76450000Y-67800000D02*
X76450000Y-66200000D01*
X77550000Y-67800000D02*
X77550000Y-66200000D01*
X66100000Y-43700000D02*
X66100000Y-42300000D01*
X67900000Y-43700000D02*
X67900000Y-42300000D01*
X67500000Y-43600000D02*
X66500000Y-43600000D01*
X66500000Y-43600000D02*
X67000000Y-42400000D01*
X67000000Y-42400000D02*
X67500000Y-43600000D01*
X67900000Y-56300000D02*
X67900000Y-57700000D01*
X66100000Y-56300000D02*
X66100000Y-57700000D01*
X66500000Y-56400000D02*
X67500000Y-56400000D01*
X67500000Y-56400000D02*
X67000000Y-57600000D01*
X67000000Y-57600000D02*
X66500000Y-56400000D01*
X51500000Y-47800000D02*
X51600000Y-47800000D01*
X51500000Y-52200000D02*
X51500000Y-47800000D01*
X51600000Y-52200000D02*
X51500000Y-52200000D01*
X56500000Y-52200000D02*
X56400000Y-52200000D01*
X56500000Y-47800000D02*
X56400000Y-47800000D01*
X56500000Y-52200000D02*
X56500000Y-47800000D01*
X56800000Y-52700000D02*
G75*
G03X56800000Y-52700000I-200000J0D01*
G01*
X56800000Y-42550000D02*
X55200000Y-42550000D01*
X56800000Y-41450000D02*
X55200000Y-41450000D01*
X51200000Y-41450000D02*
X52800000Y-41450000D01*
X51200000Y-42550000D02*
X52800000Y-42550000D01*
X51200000Y-57450000D02*
X52800000Y-57450000D01*
X51200000Y-58550000D02*
X52800000Y-58550000D01*
X56800000Y-58550000D02*
X55200000Y-58550000D01*
X56800000Y-57450000D02*
X55200000Y-57450000D01*
X55200000Y-43450000D02*
X56800000Y-43450000D01*
X55200000Y-44550000D02*
X56800000Y-44550000D01*
X52800000Y-44550000D02*
X51200000Y-44550000D01*
X52800000Y-43450000D02*
X51200000Y-43450000D01*
X52800000Y-56550000D02*
X51200000Y-56550000D01*
X52800000Y-55450000D02*
X51200000Y-55450000D01*
X55200000Y-55450000D02*
X56800000Y-55450000D01*
X55200000Y-56550000D02*
X56800000Y-56550000D01*
X59800000Y-45450000D02*
X58200000Y-45450000D01*
X59800000Y-46550000D02*
X58200000Y-46550000D01*
X59800000Y-47450000D02*
X58200000Y-47450000D01*
X59800000Y-48550000D02*
X58200000Y-48550000D01*
X59800000Y-52550000D02*
X58200000Y-52550000D01*
X59800000Y-51450000D02*
X58200000Y-51450000D01*
X59800000Y-54550000D02*
X58200000Y-54550000D01*
X59800000Y-53450000D02*
X58200000Y-53450000D01*
X67550000Y-30400000D02*
X67550000Y-28800000D01*
X66450000Y-30400000D02*
X66450000Y-28800000D01*
X66450000Y-18800000D02*
X66450000Y-20400000D01*
X67550000Y-18800000D02*
X67550000Y-20400000D01*
X63850000Y-69600000D02*
X63850000Y-71200000D01*
X62750000Y-69600000D02*
X62750000Y-71200000D01*
X62750000Y-81200000D02*
X62750000Y-79600000D01*
X63850000Y-81200000D02*
X63850000Y-79600000D01*
X62450000Y-28800000D02*
X62450000Y-30400000D01*
X63550000Y-28800000D02*
X63550000Y-30400000D01*
X63550000Y-20400000D02*
X63550000Y-18800000D01*
X62450000Y-20400000D02*
X62450000Y-18800000D01*
X66750000Y-71200000D02*
X66750000Y-69600000D01*
X67850000Y-71200000D02*
X67850000Y-69600000D01*
X67850000Y-79600000D02*
X67850000Y-81200000D01*
X66750000Y-79600000D02*
X66750000Y-81200000D01*
X59500000Y-25150000D02*
X61100000Y-25150000D01*
X59500000Y-24050000D02*
X61100000Y-24050000D01*
X70600000Y-24050000D02*
X69000000Y-24050000D01*
X70600000Y-25150000D02*
X69000000Y-25150000D01*
X70600000Y-74850000D02*
X69000000Y-74850000D01*
X70600000Y-75950000D02*
X69000000Y-75950000D01*
X75550000Y-33800000D02*
X75550000Y-32200000D01*
X74450000Y-33800000D02*
X74450000Y-32200000D01*
X74450000Y-66200000D02*
X74450000Y-67800000D01*
X75550000Y-66200000D02*
X75550000Y-67800000D01*
X75550000Y-36800000D02*
X75550000Y-35200000D01*
X74450000Y-36800000D02*
X74450000Y-35200000D01*
X74450000Y-63200000D02*
X74450000Y-64800000D01*
X75550000Y-63200000D02*
X75550000Y-64800000D01*
X70200000Y-44550000D02*
X71800000Y-44550000D01*
X70200000Y-43450000D02*
X71800000Y-43450000D01*
X70200000Y-42550000D02*
X71800000Y-42550000D01*
X70200000Y-41450000D02*
X71800000Y-41450000D01*
X67550000Y-38800000D02*
X67550000Y-37200000D01*
X66450000Y-38800000D02*
X66450000Y-37200000D01*
X69550000Y-38800000D02*
X69550000Y-37200000D01*
X68450000Y-38800000D02*
X68450000Y-37200000D01*
X70200000Y-56550000D02*
X71800000Y-56550000D01*
X70200000Y-55450000D02*
X71800000Y-55450000D01*
X70200000Y-58550000D02*
X71800000Y-58550000D01*
X70200000Y-57450000D02*
X71800000Y-57450000D01*
X66450000Y-61200000D02*
X66450000Y-62800000D01*
X67550000Y-61200000D02*
X67550000Y-62800000D01*
X68450000Y-61200000D02*
X68450000Y-62800000D01*
X69550000Y-61200000D02*
X69550000Y-62800000D01*
X64550000Y-42800000D02*
X64550000Y-41200000D01*
X63450000Y-42800000D02*
X63450000Y-41200000D01*
X64550000Y-45800000D02*
X64550000Y-44200000D01*
X63450000Y-45800000D02*
X63450000Y-44200000D01*
X63450000Y-57200000D02*
X63450000Y-58800000D01*
X64550000Y-57200000D02*
X64550000Y-58800000D01*
X63450000Y-54200000D02*
X63450000Y-55800000D01*
X64550000Y-54200000D02*
X64550000Y-55800000D01*
D12*
X69000000Y-48200000D02*
G75*
G03X69000000Y-48200000I-100000J0D01*
G01*
D11*
X68900000Y-51450000D02*
X67900000Y-51450000D01*
X68900000Y-48550000D02*
X67900000Y-48550000D01*
X62523607Y-22500000D02*
G75*
G03X62523607Y-22500000I-223607J0D01*
G01*
X65500000Y-23100000D02*
X65500000Y-26100000D01*
X62500000Y-23100000D02*
X62500000Y-26100000D01*
X67800000Y-76900000D02*
X67800000Y-73900000D01*
X64800000Y-76900000D02*
X64800000Y-73900000D01*
X68223607Y-77500000D02*
G75*
G03X68223607Y-77500000I-223607J0D01*
G01*
X80923607Y-52100000D02*
G75*
G03X80923607Y-52100000I-223607J0D01*
G01*
X77500000Y-51500000D02*
X77500000Y-48500000D01*
X80500000Y-51500000D02*
X80500000Y-48500000D01*
X55200000Y-39450000D02*
X56800000Y-39450000D01*
X55200000Y-40550000D02*
X56800000Y-40550000D01*
X52800000Y-40550000D02*
X51200000Y-40550000D01*
X52800000Y-39450000D02*
X51200000Y-39450000D01*
X52800000Y-60550000D02*
X51200000Y-60550000D01*
X52800000Y-59450000D02*
X51200000Y-59450000D01*
X55200000Y-59450000D02*
X56800000Y-59450000D01*
X55200000Y-60550000D02*
X56800000Y-60550000D01*
X67850000Y-27600000D02*
X67850000Y-25600000D01*
X66150000Y-27600000D02*
X66150000Y-25600000D01*
X66150000Y-21600000D02*
X66150000Y-23600000D01*
X67850000Y-21600000D02*
X67850000Y-23600000D01*
X64150000Y-72400000D02*
X64150000Y-74400000D01*
X62450000Y-72400000D02*
X62450000Y-74400000D01*
X62450000Y-78400000D02*
X62450000Y-76400000D01*
X64150000Y-78400000D02*
X64150000Y-76400000D01*
X65550000Y-30400000D02*
X65550000Y-28800000D01*
X64450000Y-30400000D02*
X64450000Y-28800000D01*
X65850000Y-69600000D02*
X65850000Y-71200000D01*
X64750000Y-69600000D02*
X64750000Y-71200000D01*
X64750000Y-81200000D02*
X64750000Y-79600000D01*
X65850000Y-81200000D02*
X65850000Y-79600000D01*
X76450000Y-32200000D02*
X76450000Y-33800000D01*
X77550000Y-32200000D02*
X77550000Y-33800000D01*
X77550000Y-36800000D02*
X77550000Y-35200000D01*
X76450000Y-36800000D02*
X76450000Y-35200000D01*
X76450000Y-63200000D02*
X76450000Y-64800000D01*
X77550000Y-63200000D02*
X77550000Y-64800000D01*
X66800000Y-47850000D02*
X68400000Y-47850000D01*
X66800000Y-46750000D02*
X68400000Y-46750000D01*
X71050000Y-48800000D02*
X71050000Y-50400000D01*
X72150000Y-48800000D02*
X72150000Y-50400000D01*
X68400000Y-52150000D02*
X66800000Y-52150000D01*
X68400000Y-53250000D02*
X66800000Y-53250000D01*
X50150000Y-25700000D02*
X50150000Y-24100000D01*
X49050000Y-25700000D02*
X49050000Y-24100000D01*
X45600000Y-30450000D02*
X47200000Y-30450000D01*
X45600000Y-29350000D02*
X47200000Y-29350000D01*
X47500000Y-53500000D02*
X47100000Y-53500000D01*
X47500000Y-53100000D02*
X47500000Y-53500000D01*
X42500000Y-53500000D02*
X42500000Y-53100000D01*
X42900000Y-53500000D02*
X42500000Y-53500000D01*
X42500000Y-46500000D02*
X42500000Y-46900000D01*
X42900000Y-46500000D02*
X42500000Y-46500000D01*
X47500000Y-46500000D02*
X47100000Y-46500000D01*
X47500000Y-46900000D02*
X47500000Y-46500000D01*
X47750000Y-46300000D02*
G75*
G03X47750000Y-46300000I-50000J0D01*
G01*
X23350000Y-19200000D02*
X23350000Y-20800000D01*
X24450000Y-19200000D02*
X24450000Y-20800000D01*
X24950000Y-19200000D02*
X24950000Y-20800000D01*
X26050000Y-19200000D02*
X26050000Y-20800000D01*
X83850000Y-53200000D02*
X83850000Y-54800000D01*
X84950000Y-53200000D02*
X84950000Y-54800000D01*
X15350000Y-19200000D02*
X15350000Y-20800000D01*
X16450000Y-19200000D02*
X16450000Y-20800000D01*
X85450000Y-53200000D02*
X85450000Y-54800000D01*
X86550000Y-53200000D02*
X86550000Y-54800000D01*
X16950000Y-19200000D02*
X16950000Y-20800000D01*
X18050000Y-19200000D02*
X18050000Y-20800000D01*
X41300000Y-47750000D02*
X39700000Y-47750000D01*
X41300000Y-48850000D02*
X39700000Y-48850000D01*
X18050000Y-24300000D02*
X18050000Y-22700000D01*
X16950000Y-24300000D02*
X16950000Y-22700000D01*
X19650000Y-24300000D02*
X19650000Y-22700000D01*
X18550000Y-24300000D02*
X18550000Y-22700000D01*
X40300000Y-14650000D02*
X41900000Y-14650000D01*
X40300000Y-13550000D02*
X41900000Y-13550000D01*
X17950000Y-62200000D02*
X17950000Y-63800000D01*
X19050000Y-62200000D02*
X19050000Y-63800000D01*
X32050000Y-37800000D02*
X32050000Y-36200000D01*
X30950000Y-37800000D02*
X30950000Y-36200000D01*
X41300000Y-46150000D02*
X39700000Y-46150000D01*
X41300000Y-47250000D02*
X39700000Y-47250000D01*
D12*
X21300000Y-18200000D02*
G75*
G03X21300000Y-18200000I-100000J0D01*
G01*
D11*
X21200000Y-21450000D02*
X20200000Y-21450000D01*
X21200000Y-18550000D02*
X20200000Y-18550000D01*
X44650000Y-24750000D02*
X45350000Y-24750000D01*
X43550000Y-26050000D02*
X44400000Y-26050000D01*
X46450000Y-26050000D02*
X45600000Y-26050000D01*
X46450000Y-24900000D02*
X46450000Y-26050000D01*
X43550000Y-24900000D02*
X43550000Y-26050000D01*
X27650000Y-20800000D02*
X27650000Y-19200000D01*
X26550000Y-20800000D02*
X26550000Y-19200000D01*
X48550000Y-25700000D02*
X48550000Y-24100000D01*
X47450000Y-25700000D02*
X47450000Y-24100000D01*
X42800000Y-32050000D02*
X44400000Y-32050000D01*
X42800000Y-30950000D02*
X44400000Y-30950000D01*
X45600000Y-32050000D02*
X47200000Y-32050000D01*
X45600000Y-30950000D02*
X47200000Y-30950000D01*
X42800000Y-30450000D02*
X44400000Y-30450000D01*
X42800000Y-29350000D02*
X44400000Y-29350000D01*
X42800000Y-28850000D02*
X44400000Y-28850000D01*
X42800000Y-27750000D02*
X44400000Y-27750000D01*
X45600000Y-28850000D02*
X47200000Y-28850000D01*
X45600000Y-27750000D02*
X47200000Y-27750000D01*
X41300000Y-49350000D02*
X39700000Y-49350000D01*
X41300000Y-50450000D02*
X39700000Y-50450000D01*
X3450000Y-53200000D02*
X3450000Y-54800000D01*
X4550000Y-53200000D02*
X4550000Y-54800000D01*
X5050000Y-53200000D02*
X5050000Y-54800000D01*
X6150000Y-53200000D02*
X6150000Y-54800000D01*
X14650000Y-22900000D02*
X14650000Y-24900000D01*
X16350000Y-22900000D02*
X16350000Y-24900000D01*
D13*
G36*
X47030848Y-68168569D02*
G01*
X47008561Y-68177639D01*
X46611712Y-68412153D01*
X46208354Y-68772907D01*
X45837123Y-69222936D01*
X45700391Y-69429175D01*
X45396820Y-69920999D01*
X44940523Y-69663481D01*
X44367854Y-69430457D01*
X43767557Y-69347938D01*
X43171595Y-69412597D01*
X42611930Y-69621106D01*
X42136393Y-69955424D01*
X41928977Y-70184451D01*
X41711595Y-70485744D01*
X41511645Y-70813086D01*
X41356522Y-71120262D01*
X41273621Y-71361057D01*
X41266734Y-71422476D01*
X41184288Y-71476951D01*
X40945665Y-71520705D01*
X40563809Y-71551462D01*
X40521069Y-71553601D01*
X40101148Y-71584460D01*
X39801675Y-71636466D01*
X39574108Y-71719952D01*
X39471749Y-71776959D01*
X39145464Y-72070250D01*
X38957652Y-72460194D01*
X38909262Y-72944651D01*
X38914908Y-73035526D01*
X38996610Y-73459570D01*
X39179051Y-73782256D01*
X39489577Y-74042632D01*
X39704734Y-74163333D01*
X40123667Y-74375000D01*
X45246000Y-74394710D01*
X46313852Y-74398507D01*
X47225961Y-74400833D01*
X47995916Y-74401375D01*
X48637302Y-74399817D01*
X49163708Y-74395844D01*
X49588720Y-74389142D01*
X49925926Y-74379395D01*
X50188913Y-74366288D01*
X50391268Y-74349507D01*
X50546578Y-74328737D01*
X50668431Y-74303662D01*
X50770413Y-74273968D01*
X50793437Y-74266120D01*
X51325119Y-74024948D01*
X51707588Y-73721163D01*
X51942673Y-73367376D01*
X52081081Y-72896312D01*
X52070896Y-72694511D01*
X51649721Y-72694511D01*
X51617962Y-73073093D01*
X51433879Y-73403835D01*
X51110516Y-73675327D01*
X50660918Y-73876160D01*
X50174397Y-73984932D01*
X49970304Y-74001061D01*
X49622245Y-74013845D01*
X49149413Y-74023440D01*
X48571002Y-74030000D01*
X47906206Y-74033682D01*
X47174218Y-74034640D01*
X46394233Y-74033031D01*
X45585443Y-74029010D01*
X44767042Y-74022732D01*
X43958224Y-74014353D01*
X43178183Y-74004029D01*
X42446113Y-73991914D01*
X41781206Y-73978164D01*
X41202657Y-73962935D01*
X40729660Y-73946382D01*
X40381407Y-73928661D01*
X40177093Y-73909928D01*
X40145032Y-73903687D01*
X39751434Y-73731114D01*
X39473855Y-73468118D01*
X39332874Y-73137507D01*
X39319333Y-72988496D01*
X39363257Y-72591219D01*
X39504178Y-72299951D01*
X39755825Y-72105420D01*
X40131925Y-71998349D01*
X40646204Y-71969465D01*
X40820504Y-71974278D01*
X41538955Y-72004333D01*
X41684634Y-71538666D01*
X41848414Y-71075888D01*
X42023924Y-70728024D01*
X42242350Y-70441777D01*
X42440526Y-70246771D01*
X42896581Y-69941715D01*
X43407524Y-69783965D01*
X43945664Y-69772994D01*
X44483309Y-69908277D01*
X44992769Y-70189286D01*
X45131222Y-70297908D01*
X45326091Y-70440140D01*
X45483095Y-70517203D01*
X45512222Y-70521785D01*
X45603176Y-70449906D01*
X45731588Y-70262247D01*
X45869764Y-69999327D01*
X45870631Y-69997465D01*
X46144457Y-69522822D01*
X46487456Y-69101094D01*
X46866231Y-68765341D01*
X47247380Y-68548624D01*
X47376803Y-68506598D01*
X47798205Y-68448145D01*
X48208110Y-68502959D01*
X48662874Y-68679433D01*
X48717333Y-68706271D01*
X49191748Y-69021463D01*
X49516207Y-69413913D01*
X49689104Y-69879240D01*
X49708839Y-70413060D01*
X49573805Y-71010992D01*
X49567474Y-71029507D01*
X49475942Y-71354421D01*
X49484042Y-71558134D01*
X49607653Y-71666614D01*
X49862652Y-71705830D01*
X49982333Y-71708000D01*
X50415110Y-71746427D01*
X50838023Y-71850098D01*
X51196241Y-72001599D01*
X51417412Y-72163815D01*
X51558137Y-72388717D01*
X51645463Y-72664999D01*
X51649721Y-72694511D01*
X52070896Y-72694511D01*
X52059244Y-72463672D01*
X51884155Y-72081316D01*
X51562806Y-71761102D01*
X51102189Y-71514891D01*
X50791743Y-71415243D01*
X50497218Y-71344939D01*
X50251514Y-71297535D01*
X50135042Y-71284666D01*
X50038088Y-71262757D01*
X50014050Y-71166798D01*
X50046997Y-70967166D01*
X50120151Y-70307391D01*
X50053617Y-69703523D01*
X49851950Y-69174494D01*
X49519705Y-68739237D01*
X49508254Y-68728286D01*
X49082661Y-68419187D01*
X48575187Y-68198327D01*
X48032768Y-68076043D01*
X47502343Y-68062678D01*
X47030848Y-68168569D01*
G37*
X47030848Y-68168569D02*
X47008561Y-68177639D01*
X46611712Y-68412153D01*
X46208354Y-68772907D01*
X45837123Y-69222936D01*
X45700391Y-69429175D01*
X45396820Y-69920999D01*
X44940523Y-69663481D01*
X44367854Y-69430457D01*
X43767557Y-69347938D01*
X43171595Y-69412597D01*
X42611930Y-69621106D01*
X42136393Y-69955424D01*
X41928977Y-70184451D01*
X41711595Y-70485744D01*
X41511645Y-70813086D01*
X41356522Y-71120262D01*
X41273621Y-71361057D01*
X41266734Y-71422476D01*
X41184288Y-71476951D01*
X40945665Y-71520705D01*
X40563809Y-71551462D01*
X40521069Y-71553601D01*
X40101148Y-71584460D01*
X39801675Y-71636466D01*
X39574108Y-71719952D01*
X39471749Y-71776959D01*
X39145464Y-72070250D01*
X38957652Y-72460194D01*
X38909262Y-72944651D01*
X38914908Y-73035526D01*
X38996610Y-73459570D01*
X39179051Y-73782256D01*
X39489577Y-74042632D01*
X39704734Y-74163333D01*
X40123667Y-74375000D01*
X45246000Y-74394710D01*
X46313852Y-74398507D01*
X47225961Y-74400833D01*
X47995916Y-74401375D01*
X48637302Y-74399817D01*
X49163708Y-74395844D01*
X49588720Y-74389142D01*
X49925926Y-74379395D01*
X50188913Y-74366288D01*
X50391268Y-74349507D01*
X50546578Y-74328737D01*
X50668431Y-74303662D01*
X50770413Y-74273968D01*
X50793437Y-74266120D01*
X51325119Y-74024948D01*
X51707588Y-73721163D01*
X51942673Y-73367376D01*
X52081081Y-72896312D01*
X52070896Y-72694511D01*
X51649721Y-72694511D01*
X51617962Y-73073093D01*
X51433879Y-73403835D01*
X51110516Y-73675327D01*
X50660918Y-73876160D01*
X50174397Y-73984932D01*
X49970304Y-74001061D01*
X49622245Y-74013845D01*
X49149413Y-74023440D01*
X48571002Y-74030000D01*
X47906206Y-74033682D01*
X47174218Y-74034640D01*
X46394233Y-74033031D01*
X45585443Y-74029010D01*
X44767042Y-74022732D01*
X43958224Y-74014353D01*
X43178183Y-74004029D01*
X42446113Y-73991914D01*
X41781206Y-73978164D01*
X41202657Y-73962935D01*
X40729660Y-73946382D01*
X40381407Y-73928661D01*
X40177093Y-73909928D01*
X40145032Y-73903687D01*
X39751434Y-73731114D01*
X39473855Y-73468118D01*
X39332874Y-73137507D01*
X39319333Y-72988496D01*
X39363257Y-72591219D01*
X39504178Y-72299951D01*
X39755825Y-72105420D01*
X40131925Y-71998349D01*
X40646204Y-71969465D01*
X40820504Y-71974278D01*
X41538955Y-72004333D01*
X41684634Y-71538666D01*
X41848414Y-71075888D01*
X42023924Y-70728024D01*
X42242350Y-70441777D01*
X42440526Y-70246771D01*
X42896581Y-69941715D01*
X43407524Y-69783965D01*
X43945664Y-69772994D01*
X44483309Y-69908277D01*
X44992769Y-70189286D01*
X45131222Y-70297908D01*
X45326091Y-70440140D01*
X45483095Y-70517203D01*
X45512222Y-70521785D01*
X45603176Y-70449906D01*
X45731588Y-70262247D01*
X45869764Y-69999327D01*
X45870631Y-69997465D01*
X46144457Y-69522822D01*
X46487456Y-69101094D01*
X46866231Y-68765341D01*
X47247380Y-68548624D01*
X47376803Y-68506598D01*
X47798205Y-68448145D01*
X48208110Y-68502959D01*
X48662874Y-68679433D01*
X48717333Y-68706271D01*
X49191748Y-69021463D01*
X49516207Y-69413913D01*
X49689104Y-69879240D01*
X49708839Y-70413060D01*
X49573805Y-71010992D01*
X49567474Y-71029507D01*
X49475942Y-71354421D01*
X49484042Y-71558134D01*
X49607653Y-71666614D01*
X49862652Y-71705830D01*
X49982333Y-71708000D01*
X50415110Y-71746427D01*
X50838023Y-71850098D01*
X51196241Y-72001599D01*
X51417412Y-72163815D01*
X51558137Y-72388717D01*
X51645463Y-72664999D01*
X51649721Y-72694511D01*
X52070896Y-72694511D01*
X52059244Y-72463672D01*
X51884155Y-72081316D01*
X51562806Y-71761102D01*
X51102189Y-71514891D01*
X50791743Y-71415243D01*
X50497218Y-71344939D01*
X50251514Y-71297535D01*
X50135042Y-71284666D01*
X50038088Y-71262757D01*
X50014050Y-71166798D01*
X50046997Y-70967166D01*
X50120151Y-70307391D01*
X50053617Y-69703523D01*
X49851950Y-69174494D01*
X49519705Y-68739237D01*
X49508254Y-68728286D01*
X49082661Y-68419187D01*
X48575187Y-68198327D01*
X48032768Y-68076043D01*
X47502343Y-68062678D01*
X47030848Y-68168569D01*
D11*
X60814285Y-28785714D02*
X60852380Y-28823809D01*
X60966666Y-28861904D01*
X61042857Y-28861904D01*
X61157142Y-28823809D01*
X61233333Y-28747619D01*
X61271428Y-28671428D01*
X61309523Y-28519047D01*
X61309523Y-28404761D01*
X61271428Y-28252380D01*
X61233333Y-28176190D01*
X61157142Y-28100000D01*
X61042857Y-28061904D01*
X60966666Y-28061904D01*
X60852380Y-28100000D01*
X60814285Y-28138095D01*
X60128571Y-28328571D02*
X60128571Y-28861904D01*
X60319047Y-28023809D02*
X60509523Y-28595238D01*
X60014285Y-28595238D01*
X59785714Y-28061904D02*
X59252380Y-28061904D01*
X59595238Y-28861904D01*
X70314285Y-72485714D02*
X70352380Y-72523809D01*
X70466666Y-72561904D01*
X70542857Y-72561904D01*
X70657142Y-72523809D01*
X70733333Y-72447619D01*
X70771428Y-72371428D01*
X70809523Y-72219047D01*
X70809523Y-72104761D01*
X70771428Y-71952380D01*
X70733333Y-71876190D01*
X70657142Y-71800000D01*
X70542857Y-71761904D01*
X70466666Y-71761904D01*
X70352380Y-71800000D01*
X70314285Y-71838095D01*
X69628571Y-72028571D02*
X69628571Y-72561904D01*
X69819047Y-71723809D02*
X70009523Y-72295238D01*
X69514285Y-72295238D01*
X68866666Y-71761904D02*
X69019047Y-71761904D01*
X69095238Y-71800000D01*
X69133333Y-71838095D01*
X69209523Y-71952380D01*
X69247619Y-72104761D01*
X69247619Y-72409523D01*
X69209523Y-72485714D01*
X69171428Y-72523809D01*
X69095238Y-72561904D01*
X68942857Y-72561904D01*
X68866666Y-72523809D01*
X68828571Y-72485714D01*
X68790476Y-72409523D01*
X68790476Y-72219047D01*
X68828571Y-72142857D01*
X68866666Y-72104761D01*
X68942857Y-72066666D01*
X69095238Y-72066666D01*
X69171428Y-72104761D01*
X69209523Y-72142857D01*
X69247619Y-72219047D01*
X74985714Y-49485714D02*
X75023809Y-49447619D01*
X75061904Y-49333333D01*
X75061904Y-49257142D01*
X75023809Y-49142857D01*
X74947619Y-49066666D01*
X74871428Y-49028571D01*
X74719047Y-48990476D01*
X74604761Y-48990476D01*
X74452380Y-49028571D01*
X74376190Y-49066666D01*
X74300000Y-49142857D01*
X74261904Y-49257142D01*
X74261904Y-49333333D01*
X74300000Y-49447619D01*
X74338095Y-49485714D01*
X74528571Y-50171428D02*
X75061904Y-50171428D01*
X74223809Y-49980952D02*
X74795238Y-49790476D01*
X74795238Y-50285714D01*
X74261904Y-50971428D02*
X74261904Y-50590476D01*
X74642857Y-50552380D01*
X74604761Y-50590476D01*
X74566666Y-50666666D01*
X74566666Y-50857142D01*
X74604761Y-50933333D01*
X74642857Y-50971428D01*
X74719047Y-51009523D01*
X74909523Y-51009523D01*
X74985714Y-50971428D01*
X75023809Y-50933333D01*
X75061904Y-50857142D01*
X75061904Y-50666666D01*
X75023809Y-50590476D01*
X74985714Y-50552380D01*
X54385714Y-57985714D02*
X54423809Y-57947619D01*
X54461904Y-57833333D01*
X54461904Y-57757142D01*
X54423809Y-57642857D01*
X54347619Y-57566666D01*
X54271428Y-57528571D01*
X54119047Y-57490476D01*
X54004761Y-57490476D01*
X53852380Y-57528571D01*
X53776190Y-57566666D01*
X53700000Y-57642857D01*
X53661904Y-57757142D01*
X53661904Y-57833333D01*
X53700000Y-57947619D01*
X53738095Y-57985714D01*
X53928571Y-58671428D02*
X54461904Y-58671428D01*
X53623809Y-58480952D02*
X54195238Y-58290476D01*
X54195238Y-58785714D01*
X53928571Y-59433333D02*
X54461904Y-59433333D01*
X53623809Y-59242857D02*
X54195238Y-59052380D01*
X54195238Y-59547619D01*
X56480952Y-29261904D02*
X56480952Y-28461904D01*
X55642857Y-29185714D02*
X55680952Y-29223809D01*
X55795238Y-29261904D01*
X55871428Y-29261904D01*
X55985714Y-29223809D01*
X56061904Y-29147619D01*
X56100000Y-29071428D01*
X56138095Y-28919047D01*
X56138095Y-28804761D01*
X56100000Y-28652380D01*
X56061904Y-28576190D01*
X55985714Y-28500000D01*
X55871428Y-28461904D01*
X55795238Y-28461904D01*
X55680952Y-28500000D01*
X55642857Y-28538095D01*
X55261904Y-29261904D02*
X55109523Y-29261904D01*
X55033333Y-29223809D01*
X54995238Y-29185714D01*
X54919047Y-29071428D01*
X54880952Y-28919047D01*
X54880952Y-28614285D01*
X54919047Y-28538095D01*
X54957142Y-28500000D01*
X55033333Y-28461904D01*
X55185714Y-28461904D01*
X55261904Y-28500000D01*
X55300000Y-28538095D01*
X55338095Y-28614285D01*
X55338095Y-28804761D01*
X55300000Y-28880952D01*
X55261904Y-28919047D01*
X55185714Y-28957142D01*
X55033333Y-28957142D01*
X54957142Y-28919047D01*
X54919047Y-28880952D01*
X54880952Y-28804761D01*
X50914285Y-36285714D02*
X50952380Y-36323809D01*
X51066666Y-36361904D01*
X51142857Y-36361904D01*
X51257142Y-36323809D01*
X51333333Y-36247619D01*
X51371428Y-36171428D01*
X51409523Y-36019047D01*
X51409523Y-35904761D01*
X51371428Y-35752380D01*
X51333333Y-35676190D01*
X51257142Y-35600000D01*
X51142857Y-35561904D01*
X51066666Y-35561904D01*
X50952380Y-35600000D01*
X50914285Y-35638095D01*
X50228571Y-35828571D02*
X50228571Y-36361904D01*
X50419047Y-35523809D02*
X50609523Y-36095238D01*
X50114285Y-36095238D01*
X49885714Y-35561904D02*
X49390476Y-35561904D01*
X49657142Y-35866666D01*
X49542857Y-35866666D01*
X49466666Y-35904761D01*
X49428571Y-35942857D01*
X49390476Y-36019047D01*
X49390476Y-36209523D01*
X49428571Y-36285714D01*
X49466666Y-36323809D01*
X49542857Y-36361904D01*
X49771428Y-36361904D01*
X49847619Y-36323809D01*
X49885714Y-36285714D01*
X51014285Y-34285714D02*
X51052380Y-34323809D01*
X51166666Y-34361904D01*
X51242857Y-34361904D01*
X51357142Y-34323809D01*
X51433333Y-34247619D01*
X51471428Y-34171428D01*
X51509523Y-34019047D01*
X51509523Y-33904761D01*
X51471428Y-33752380D01*
X51433333Y-33676190D01*
X51357142Y-33600000D01*
X51242857Y-33561904D01*
X51166666Y-33561904D01*
X51052380Y-33600000D01*
X51014285Y-33638095D01*
X50328571Y-33828571D02*
X50328571Y-34361904D01*
X50519047Y-33523809D02*
X50709523Y-34095238D01*
X50214285Y-34095238D01*
X49947619Y-33638095D02*
X49909523Y-33600000D01*
X49833333Y-33561904D01*
X49642857Y-33561904D01*
X49566666Y-33600000D01*
X49528571Y-33638095D01*
X49490476Y-33714285D01*
X49490476Y-33790476D01*
X49528571Y-33904761D01*
X49985714Y-34361904D01*
X49490476Y-34361904D01*
X57685714Y-30485714D02*
X57723809Y-30447619D01*
X57761904Y-30333333D01*
X57761904Y-30257142D01*
X57723809Y-30142857D01*
X57647619Y-30066666D01*
X57571428Y-30028571D01*
X57419047Y-29990476D01*
X57304761Y-29990476D01*
X57152380Y-30028571D01*
X57076190Y-30066666D01*
X57000000Y-30142857D01*
X56961904Y-30257142D01*
X56961904Y-30333333D01*
X57000000Y-30447619D01*
X57038095Y-30485714D01*
X57228571Y-31171428D02*
X57761904Y-31171428D01*
X56923809Y-30980952D02*
X57495238Y-30790476D01*
X57495238Y-31285714D01*
X57761904Y-32009523D02*
X57761904Y-31552380D01*
X57761904Y-31780952D02*
X56961904Y-31780952D01*
X57076190Y-31704761D01*
X57152380Y-31628571D01*
X57190476Y-31552380D01*
X23785714Y-22985714D02*
X23823809Y-22947619D01*
X23861904Y-22833333D01*
X23861904Y-22757142D01*
X23823809Y-22642857D01*
X23747619Y-22566666D01*
X23671428Y-22528571D01*
X23519047Y-22490476D01*
X23404761Y-22490476D01*
X23252380Y-22528571D01*
X23176190Y-22566666D01*
X23100000Y-22642857D01*
X23061904Y-22757142D01*
X23061904Y-22833333D01*
X23100000Y-22947619D01*
X23138095Y-22985714D01*
X23328571Y-23671428D02*
X23861904Y-23671428D01*
X23023809Y-23480952D02*
X23595238Y-23290476D01*
X23595238Y-23785714D01*
X23061904Y-24242857D02*
X23061904Y-24319047D01*
X23100000Y-24395238D01*
X23138095Y-24433333D01*
X23214285Y-24471428D01*
X23366666Y-24509523D01*
X23557142Y-24509523D01*
X23709523Y-24471428D01*
X23785714Y-24433333D01*
X23823809Y-24395238D01*
X23861904Y-24319047D01*
X23861904Y-24242857D01*
X23823809Y-24166666D01*
X23785714Y-24128571D01*
X23709523Y-24090476D01*
X23557142Y-24052380D01*
X23366666Y-24052380D01*
X23214285Y-24090476D01*
X23138095Y-24128571D01*
X23100000Y-24166666D01*
X23061904Y-24242857D01*
X53514285Y-23285714D02*
X53552380Y-23323809D01*
X53666666Y-23361904D01*
X53742857Y-23361904D01*
X53857142Y-23323809D01*
X53933333Y-23247619D01*
X53971428Y-23171428D01*
X54009523Y-23019047D01*
X54009523Y-22904761D01*
X53971428Y-22752380D01*
X53933333Y-22676190D01*
X53857142Y-22600000D01*
X53742857Y-22561904D01*
X53666666Y-22561904D01*
X53552380Y-22600000D01*
X53514285Y-22638095D01*
X52752380Y-23361904D02*
X53209523Y-23361904D01*
X52980952Y-23361904D02*
X52980952Y-22561904D01*
X53057142Y-22676190D01*
X53133333Y-22752380D01*
X53209523Y-22790476D01*
X52485714Y-22561904D02*
X51990476Y-22561904D01*
X52257142Y-22866666D01*
X52142857Y-22866666D01*
X52066666Y-22904761D01*
X52028571Y-22942857D01*
X51990476Y-23019047D01*
X51990476Y-23209523D01*
X52028571Y-23285714D01*
X52066666Y-23323809D01*
X52142857Y-23361904D01*
X52371428Y-23361904D01*
X52447619Y-23323809D01*
X52485714Y-23285714D01*
X55914285Y-27385714D02*
X55952380Y-27423809D01*
X56066666Y-27461904D01*
X56142857Y-27461904D01*
X56257142Y-27423809D01*
X56333333Y-27347619D01*
X56371428Y-27271428D01*
X56409523Y-27119047D01*
X56409523Y-27004761D01*
X56371428Y-26852380D01*
X56333333Y-26776190D01*
X56257142Y-26700000D01*
X56142857Y-26661904D01*
X56066666Y-26661904D01*
X55952380Y-26700000D01*
X55914285Y-26738095D01*
X55152380Y-27461904D02*
X55609523Y-27461904D01*
X55380952Y-27461904D02*
X55380952Y-26661904D01*
X55457142Y-26776190D01*
X55533333Y-26852380D01*
X55609523Y-26890476D01*
X54847619Y-26738095D02*
X54809523Y-26700000D01*
X54733333Y-26661904D01*
X54542857Y-26661904D01*
X54466666Y-26700000D01*
X54428571Y-26738095D01*
X54390476Y-26814285D01*
X54390476Y-26890476D01*
X54428571Y-27004761D01*
X54885714Y-27461904D01*
X54390476Y-27461904D01*
X65285714Y-16585714D02*
X65323809Y-16547619D01*
X65361904Y-16433333D01*
X65361904Y-16357142D01*
X65323809Y-16242857D01*
X65247619Y-16166666D01*
X65171428Y-16128571D01*
X65019047Y-16090476D01*
X64904761Y-16090476D01*
X64752380Y-16128571D01*
X64676190Y-16166666D01*
X64600000Y-16242857D01*
X64561904Y-16357142D01*
X64561904Y-16433333D01*
X64600000Y-16547619D01*
X64638095Y-16585714D01*
X64561904Y-16852380D02*
X64561904Y-17347619D01*
X64866666Y-17080952D01*
X64866666Y-17195238D01*
X64904761Y-17271428D01*
X64942857Y-17309523D01*
X65019047Y-17347619D01*
X65209523Y-17347619D01*
X65285714Y-17309523D01*
X65323809Y-17271428D01*
X65361904Y-17195238D01*
X65361904Y-16966666D01*
X65323809Y-16890476D01*
X65285714Y-16852380D01*
X64561904Y-17842857D02*
X64561904Y-17919047D01*
X64600000Y-17995238D01*
X64638095Y-18033333D01*
X64714285Y-18071428D01*
X64866666Y-18109523D01*
X65057142Y-18109523D01*
X65209523Y-18071428D01*
X65285714Y-18033333D01*
X65323809Y-17995238D01*
X65361904Y-17919047D01*
X65361904Y-17842857D01*
X65323809Y-17766666D01*
X65285714Y-17728571D01*
X65209523Y-17690476D01*
X65057142Y-17652380D01*
X64866666Y-17652380D01*
X64714285Y-17690476D01*
X64638095Y-17728571D01*
X64600000Y-17766666D01*
X64561904Y-17842857D01*
X60414285Y-77161904D02*
X60680952Y-76780952D01*
X60871428Y-77161904D02*
X60871428Y-76361904D01*
X60566666Y-76361904D01*
X60490476Y-76400000D01*
X60452380Y-76438095D01*
X60414285Y-76514285D01*
X60414285Y-76628571D01*
X60452380Y-76704761D01*
X60490476Y-76742857D01*
X60566666Y-76780952D01*
X60871428Y-76780952D01*
X60147619Y-76361904D02*
X59652380Y-76361904D01*
X59919047Y-76666666D01*
X59804761Y-76666666D01*
X59728571Y-76704761D01*
X59690476Y-76742857D01*
X59652380Y-76819047D01*
X59652380Y-77009523D01*
X59690476Y-77085714D01*
X59728571Y-77123809D01*
X59804761Y-77161904D01*
X60033333Y-77161904D01*
X60109523Y-77123809D01*
X60147619Y-77085714D01*
X58890476Y-77161904D02*
X59347619Y-77161904D01*
X59119047Y-77161904D02*
X59119047Y-76361904D01*
X59195238Y-76476190D01*
X59271428Y-76552380D01*
X59347619Y-76590476D01*
X78585714Y-66485714D02*
X78623809Y-66447619D01*
X78661904Y-66333333D01*
X78661904Y-66257142D01*
X78623809Y-66142857D01*
X78547619Y-66066666D01*
X78471428Y-66028571D01*
X78319047Y-65990476D01*
X78204761Y-65990476D01*
X78052380Y-66028571D01*
X77976190Y-66066666D01*
X77900000Y-66142857D01*
X77861904Y-66257142D01*
X77861904Y-66333333D01*
X77900000Y-66447619D01*
X77938095Y-66485714D01*
X77938095Y-66790476D02*
X77900000Y-66828571D01*
X77861904Y-66904761D01*
X77861904Y-67095238D01*
X77900000Y-67171428D01*
X77938095Y-67209523D01*
X78014285Y-67247619D01*
X78090476Y-67247619D01*
X78204761Y-67209523D01*
X78661904Y-66752380D01*
X78661904Y-67247619D01*
X77861904Y-67933333D02*
X77861904Y-67780952D01*
X77900000Y-67704761D01*
X77938095Y-67666666D01*
X78052380Y-67590476D01*
X78204761Y-67552380D01*
X78509523Y-67552380D01*
X78585714Y-67590476D01*
X78623809Y-67628571D01*
X78661904Y-67704761D01*
X78661904Y-67857142D01*
X78623809Y-67933333D01*
X78585714Y-67971428D01*
X78509523Y-68009523D01*
X78319047Y-68009523D01*
X78242857Y-67971428D01*
X78204761Y-67933333D01*
X78166666Y-67857142D01*
X78166666Y-67704761D01*
X78204761Y-67628571D01*
X78242857Y-67590476D01*
X78319047Y-67552380D01*
X69085714Y-42485714D02*
X69123809Y-42447619D01*
X69161904Y-42333333D01*
X69161904Y-42257142D01*
X69123809Y-42142857D01*
X69047619Y-42066666D01*
X68971428Y-42028571D01*
X68819047Y-41990476D01*
X68704761Y-41990476D01*
X68552380Y-42028571D01*
X68476190Y-42066666D01*
X68400000Y-42142857D01*
X68361904Y-42257142D01*
X68361904Y-42333333D01*
X68400000Y-42447619D01*
X68438095Y-42485714D01*
X68438095Y-42790476D02*
X68400000Y-42828571D01*
X68361904Y-42904761D01*
X68361904Y-43095238D01*
X68400000Y-43171428D01*
X68438095Y-43209523D01*
X68514285Y-43247619D01*
X68590476Y-43247619D01*
X68704761Y-43209523D01*
X69161904Y-42752380D01*
X69161904Y-43247619D01*
X68361904Y-43514285D02*
X68361904Y-44009523D01*
X68666666Y-43742857D01*
X68666666Y-43857142D01*
X68704761Y-43933333D01*
X68742857Y-43971428D01*
X68819047Y-44009523D01*
X69009523Y-44009523D01*
X69085714Y-43971428D01*
X69123809Y-43933333D01*
X69161904Y-43857142D01*
X69161904Y-43628571D01*
X69123809Y-43552380D01*
X69085714Y-43514285D01*
X65585714Y-56485714D02*
X65623809Y-56447619D01*
X65661904Y-56333333D01*
X65661904Y-56257142D01*
X65623809Y-56142857D01*
X65547619Y-56066666D01*
X65471428Y-56028571D01*
X65319047Y-55990476D01*
X65204761Y-55990476D01*
X65052380Y-56028571D01*
X64976190Y-56066666D01*
X64900000Y-56142857D01*
X64861904Y-56257142D01*
X64861904Y-56333333D01*
X64900000Y-56447619D01*
X64938095Y-56485714D01*
X64938095Y-56790476D02*
X64900000Y-56828571D01*
X64861904Y-56904761D01*
X64861904Y-57095238D01*
X64900000Y-57171428D01*
X64938095Y-57209523D01*
X65014285Y-57247619D01*
X65090476Y-57247619D01*
X65204761Y-57209523D01*
X65661904Y-56752380D01*
X65661904Y-57247619D01*
X64938095Y-57552380D02*
X64900000Y-57590476D01*
X64861904Y-57666666D01*
X64861904Y-57857142D01*
X64900000Y-57933333D01*
X64938095Y-57971428D01*
X65014285Y-58009523D01*
X65090476Y-58009523D01*
X65204761Y-57971428D01*
X65661904Y-57514285D01*
X65661904Y-58009523D01*
X57561904Y-49219047D02*
X56761904Y-49219047D01*
X57485714Y-50057142D02*
X57523809Y-50019047D01*
X57561904Y-49904761D01*
X57561904Y-49828571D01*
X57523809Y-49714285D01*
X57447619Y-49638095D01*
X57371428Y-49600000D01*
X57219047Y-49561904D01*
X57104761Y-49561904D01*
X56952380Y-49600000D01*
X56876190Y-49638095D01*
X56800000Y-49714285D01*
X56761904Y-49828571D01*
X56761904Y-49904761D01*
X56800000Y-50019047D01*
X56838095Y-50057142D01*
X57104761Y-50514285D02*
X57066666Y-50438095D01*
X57028571Y-50400000D01*
X56952380Y-50361904D01*
X56914285Y-50361904D01*
X56838095Y-50400000D01*
X56800000Y-50438095D01*
X56761904Y-50514285D01*
X56761904Y-50666666D01*
X56800000Y-50742857D01*
X56838095Y-50780952D01*
X56914285Y-50819047D01*
X56952380Y-50819047D01*
X57028571Y-50780952D01*
X57066666Y-50742857D01*
X57104761Y-50666666D01*
X57104761Y-50514285D01*
X57142857Y-50438095D01*
X57180952Y-50400000D01*
X57257142Y-50361904D01*
X57409523Y-50361904D01*
X57485714Y-50400000D01*
X57523809Y-50438095D01*
X57561904Y-50514285D01*
X57561904Y-50666666D01*
X57523809Y-50742857D01*
X57485714Y-50780952D01*
X57409523Y-50819047D01*
X57257142Y-50819047D01*
X57180952Y-50780952D01*
X57142857Y-50742857D01*
X57104761Y-50666666D01*
X59014285Y-42361904D02*
X59280952Y-41980952D01*
X59471428Y-42361904D02*
X59471428Y-41561904D01*
X59166666Y-41561904D01*
X59090476Y-41600000D01*
X59052380Y-41638095D01*
X59014285Y-41714285D01*
X59014285Y-41828571D01*
X59052380Y-41904761D01*
X59090476Y-41942857D01*
X59166666Y-41980952D01*
X59471428Y-41980952D01*
X58290476Y-41561904D02*
X58671428Y-41561904D01*
X58709523Y-41942857D01*
X58671428Y-41904761D01*
X58595238Y-41866666D01*
X58404761Y-41866666D01*
X58328571Y-41904761D01*
X58290476Y-41942857D01*
X58252380Y-42019047D01*
X58252380Y-42209523D01*
X58290476Y-42285714D01*
X58328571Y-42323809D01*
X58404761Y-42361904D01*
X58595238Y-42361904D01*
X58671428Y-42323809D01*
X58709523Y-42285714D01*
X57985714Y-41561904D02*
X57452380Y-41561904D01*
X57795238Y-42361904D01*
X49914285Y-42361904D02*
X50180952Y-41980952D01*
X50371428Y-42361904D02*
X50371428Y-41561904D01*
X50066666Y-41561904D01*
X49990476Y-41600000D01*
X49952380Y-41638095D01*
X49914285Y-41714285D01*
X49914285Y-41828571D01*
X49952380Y-41904761D01*
X49990476Y-41942857D01*
X50066666Y-41980952D01*
X50371428Y-41980952D01*
X49190476Y-41561904D02*
X49571428Y-41561904D01*
X49609523Y-41942857D01*
X49571428Y-41904761D01*
X49495238Y-41866666D01*
X49304761Y-41866666D01*
X49228571Y-41904761D01*
X49190476Y-41942857D01*
X49152380Y-42019047D01*
X49152380Y-42209523D01*
X49190476Y-42285714D01*
X49228571Y-42323809D01*
X49304761Y-42361904D01*
X49495238Y-42361904D01*
X49571428Y-42323809D01*
X49609523Y-42285714D01*
X48466666Y-41561904D02*
X48619047Y-41561904D01*
X48695238Y-41600000D01*
X48733333Y-41638095D01*
X48809523Y-41752380D01*
X48847619Y-41904761D01*
X48847619Y-42209523D01*
X48809523Y-42285714D01*
X48771428Y-42323809D01*
X48695238Y-42361904D01*
X48542857Y-42361904D01*
X48466666Y-42323809D01*
X48428571Y-42285714D01*
X48390476Y-42209523D01*
X48390476Y-42019047D01*
X48428571Y-41942857D01*
X48466666Y-41904761D01*
X48542857Y-41866666D01*
X48695238Y-41866666D01*
X48771428Y-41904761D01*
X48809523Y-41942857D01*
X48847619Y-42019047D01*
X50014285Y-58361904D02*
X50280952Y-57980952D01*
X50471428Y-58361904D02*
X50471428Y-57561904D01*
X50166666Y-57561904D01*
X50090476Y-57600000D01*
X50052380Y-57638095D01*
X50014285Y-57714285D01*
X50014285Y-57828571D01*
X50052380Y-57904761D01*
X50090476Y-57942857D01*
X50166666Y-57980952D01*
X50471428Y-57980952D01*
X49290476Y-57561904D02*
X49671428Y-57561904D01*
X49709523Y-57942857D01*
X49671428Y-57904761D01*
X49595238Y-57866666D01*
X49404761Y-57866666D01*
X49328571Y-57904761D01*
X49290476Y-57942857D01*
X49252380Y-58019047D01*
X49252380Y-58209523D01*
X49290476Y-58285714D01*
X49328571Y-58323809D01*
X49404761Y-58361904D01*
X49595238Y-58361904D01*
X49671428Y-58323809D01*
X49709523Y-58285714D01*
X48528571Y-57561904D02*
X48909523Y-57561904D01*
X48947619Y-57942857D01*
X48909523Y-57904761D01*
X48833333Y-57866666D01*
X48642857Y-57866666D01*
X48566666Y-57904761D01*
X48528571Y-57942857D01*
X48490476Y-58019047D01*
X48490476Y-58209523D01*
X48528571Y-58285714D01*
X48566666Y-58323809D01*
X48642857Y-58361904D01*
X48833333Y-58361904D01*
X48909523Y-58323809D01*
X48947619Y-58285714D01*
X59014285Y-58461904D02*
X59280952Y-58080952D01*
X59471428Y-58461904D02*
X59471428Y-57661904D01*
X59166666Y-57661904D01*
X59090476Y-57700000D01*
X59052380Y-57738095D01*
X59014285Y-57814285D01*
X59014285Y-57928571D01*
X59052380Y-58004761D01*
X59090476Y-58042857D01*
X59166666Y-58080952D01*
X59471428Y-58080952D01*
X58290476Y-57661904D02*
X58671428Y-57661904D01*
X58709523Y-58042857D01*
X58671428Y-58004761D01*
X58595238Y-57966666D01*
X58404761Y-57966666D01*
X58328571Y-58004761D01*
X58290476Y-58042857D01*
X58252380Y-58119047D01*
X58252380Y-58309523D01*
X58290476Y-58385714D01*
X58328571Y-58423809D01*
X58404761Y-58461904D01*
X58595238Y-58461904D01*
X58671428Y-58423809D01*
X58709523Y-58385714D01*
X57566666Y-57928571D02*
X57566666Y-58461904D01*
X57757142Y-57623809D02*
X57947619Y-58195238D01*
X57452380Y-58195238D01*
X56514285Y-45761904D02*
X56780952Y-45380952D01*
X56971428Y-45761904D02*
X56971428Y-44961904D01*
X56666666Y-44961904D01*
X56590476Y-45000000D01*
X56552380Y-45038095D01*
X56514285Y-45114285D01*
X56514285Y-45228571D01*
X56552380Y-45304761D01*
X56590476Y-45342857D01*
X56666666Y-45380952D01*
X56971428Y-45380952D01*
X55790476Y-44961904D02*
X56171428Y-44961904D01*
X56209523Y-45342857D01*
X56171428Y-45304761D01*
X56095238Y-45266666D01*
X55904761Y-45266666D01*
X55828571Y-45304761D01*
X55790476Y-45342857D01*
X55752380Y-45419047D01*
X55752380Y-45609523D01*
X55790476Y-45685714D01*
X55828571Y-45723809D01*
X55904761Y-45761904D01*
X56095238Y-45761904D01*
X56171428Y-45723809D01*
X56209523Y-45685714D01*
X55485714Y-44961904D02*
X54990476Y-44961904D01*
X55257142Y-45266666D01*
X55142857Y-45266666D01*
X55066666Y-45304761D01*
X55028571Y-45342857D01*
X54990476Y-45419047D01*
X54990476Y-45609523D01*
X55028571Y-45685714D01*
X55066666Y-45723809D01*
X55142857Y-45761904D01*
X55371428Y-45761904D01*
X55447619Y-45723809D01*
X55485714Y-45685714D01*
X49914285Y-44361904D02*
X50180952Y-43980952D01*
X50371428Y-44361904D02*
X50371428Y-43561904D01*
X50066666Y-43561904D01*
X49990476Y-43600000D01*
X49952380Y-43638095D01*
X49914285Y-43714285D01*
X49914285Y-43828571D01*
X49952380Y-43904761D01*
X49990476Y-43942857D01*
X50066666Y-43980952D01*
X50371428Y-43980952D01*
X49190476Y-43561904D02*
X49571428Y-43561904D01*
X49609523Y-43942857D01*
X49571428Y-43904761D01*
X49495238Y-43866666D01*
X49304761Y-43866666D01*
X49228571Y-43904761D01*
X49190476Y-43942857D01*
X49152380Y-44019047D01*
X49152380Y-44209523D01*
X49190476Y-44285714D01*
X49228571Y-44323809D01*
X49304761Y-44361904D01*
X49495238Y-44361904D01*
X49571428Y-44323809D01*
X49609523Y-44285714D01*
X48847619Y-43638095D02*
X48809523Y-43600000D01*
X48733333Y-43561904D01*
X48542857Y-43561904D01*
X48466666Y-43600000D01*
X48428571Y-43638095D01*
X48390476Y-43714285D01*
X48390476Y-43790476D01*
X48428571Y-43904761D01*
X48885714Y-44361904D01*
X48390476Y-44361904D01*
X52514285Y-55161904D02*
X52780952Y-54780952D01*
X52971428Y-55161904D02*
X52971428Y-54361904D01*
X52666666Y-54361904D01*
X52590476Y-54400000D01*
X52552380Y-54438095D01*
X52514285Y-54514285D01*
X52514285Y-54628571D01*
X52552380Y-54704761D01*
X52590476Y-54742857D01*
X52666666Y-54780952D01*
X52971428Y-54780952D01*
X51790476Y-54361904D02*
X52171428Y-54361904D01*
X52209523Y-54742857D01*
X52171428Y-54704761D01*
X52095238Y-54666666D01*
X51904761Y-54666666D01*
X51828571Y-54704761D01*
X51790476Y-54742857D01*
X51752380Y-54819047D01*
X51752380Y-55009523D01*
X51790476Y-55085714D01*
X51828571Y-55123809D01*
X51904761Y-55161904D01*
X52095238Y-55161904D01*
X52171428Y-55123809D01*
X52209523Y-55085714D01*
X50990476Y-55161904D02*
X51447619Y-55161904D01*
X51219047Y-55161904D02*
X51219047Y-54361904D01*
X51295238Y-54476190D01*
X51371428Y-54552380D01*
X51447619Y-54590476D01*
X56614285Y-55161904D02*
X56880952Y-54780952D01*
X57071428Y-55161904D02*
X57071428Y-54361904D01*
X56766666Y-54361904D01*
X56690476Y-54400000D01*
X56652380Y-54438095D01*
X56614285Y-54514285D01*
X56614285Y-54628571D01*
X56652380Y-54704761D01*
X56690476Y-54742857D01*
X56766666Y-54780952D01*
X57071428Y-54780952D01*
X55890476Y-54361904D02*
X56271428Y-54361904D01*
X56309523Y-54742857D01*
X56271428Y-54704761D01*
X56195238Y-54666666D01*
X56004761Y-54666666D01*
X55928571Y-54704761D01*
X55890476Y-54742857D01*
X55852380Y-54819047D01*
X55852380Y-55009523D01*
X55890476Y-55085714D01*
X55928571Y-55123809D01*
X56004761Y-55161904D01*
X56195238Y-55161904D01*
X56271428Y-55123809D01*
X56309523Y-55085714D01*
X55357142Y-54361904D02*
X55280952Y-54361904D01*
X55204761Y-54400000D01*
X55166666Y-54438095D01*
X55128571Y-54514285D01*
X55090476Y-54666666D01*
X55090476Y-54857142D01*
X55128571Y-55009523D01*
X55166666Y-55085714D01*
X55204761Y-55123809D01*
X55280952Y-55161904D01*
X55357142Y-55161904D01*
X55433333Y-55123809D01*
X55471428Y-55085714D01*
X55509523Y-55009523D01*
X55547619Y-54857142D01*
X55547619Y-54666666D01*
X55509523Y-54514285D01*
X55471428Y-54438095D01*
X55433333Y-54400000D01*
X55357142Y-54361904D01*
X59514285Y-45161904D02*
X59780952Y-44780952D01*
X59971428Y-45161904D02*
X59971428Y-44361904D01*
X59666666Y-44361904D01*
X59590476Y-44400000D01*
X59552380Y-44438095D01*
X59514285Y-44514285D01*
X59514285Y-44628571D01*
X59552380Y-44704761D01*
X59590476Y-44742857D01*
X59666666Y-44780952D01*
X59971428Y-44780952D01*
X58828571Y-44628571D02*
X58828571Y-45161904D01*
X59019047Y-44323809D02*
X59209523Y-44895238D01*
X58714285Y-44895238D01*
X58371428Y-45161904D02*
X58219047Y-45161904D01*
X58142857Y-45123809D01*
X58104761Y-45085714D01*
X58028571Y-44971428D01*
X57990476Y-44819047D01*
X57990476Y-44514285D01*
X58028571Y-44438095D01*
X58066666Y-44400000D01*
X58142857Y-44361904D01*
X58295238Y-44361904D01*
X58371428Y-44400000D01*
X58409523Y-44438095D01*
X58447619Y-44514285D01*
X58447619Y-44704761D01*
X58409523Y-44780952D01*
X58371428Y-44819047D01*
X58295238Y-44857142D01*
X58142857Y-44857142D01*
X58066666Y-44819047D01*
X58028571Y-44780952D01*
X57990476Y-44704761D01*
X62014285Y-48361904D02*
X62280952Y-47980952D01*
X62471428Y-48361904D02*
X62471428Y-47561904D01*
X62166666Y-47561904D01*
X62090476Y-47600000D01*
X62052380Y-47638095D01*
X62014285Y-47714285D01*
X62014285Y-47828571D01*
X62052380Y-47904761D01*
X62090476Y-47942857D01*
X62166666Y-47980952D01*
X62471428Y-47980952D01*
X61328571Y-47828571D02*
X61328571Y-48361904D01*
X61519047Y-47523809D02*
X61709523Y-48095238D01*
X61214285Y-48095238D01*
X60795238Y-47904761D02*
X60871428Y-47866666D01*
X60909523Y-47828571D01*
X60947619Y-47752380D01*
X60947619Y-47714285D01*
X60909523Y-47638095D01*
X60871428Y-47600000D01*
X60795238Y-47561904D01*
X60642857Y-47561904D01*
X60566666Y-47600000D01*
X60528571Y-47638095D01*
X60490476Y-47714285D01*
X60490476Y-47752380D01*
X60528571Y-47828571D01*
X60566666Y-47866666D01*
X60642857Y-47904761D01*
X60795238Y-47904761D01*
X60871428Y-47942857D01*
X60909523Y-47980952D01*
X60947619Y-48057142D01*
X60947619Y-48209523D01*
X60909523Y-48285714D01*
X60871428Y-48323809D01*
X60795238Y-48361904D01*
X60642857Y-48361904D01*
X60566666Y-48323809D01*
X60528571Y-48285714D01*
X60490476Y-48209523D01*
X60490476Y-48057142D01*
X60528571Y-47980952D01*
X60566666Y-47942857D01*
X60642857Y-47904761D01*
X59514285Y-51161904D02*
X59780952Y-50780952D01*
X59971428Y-51161904D02*
X59971428Y-50361904D01*
X59666666Y-50361904D01*
X59590476Y-50400000D01*
X59552380Y-50438095D01*
X59514285Y-50514285D01*
X59514285Y-50628571D01*
X59552380Y-50704761D01*
X59590476Y-50742857D01*
X59666666Y-50780952D01*
X59971428Y-50780952D01*
X58828571Y-50628571D02*
X58828571Y-51161904D01*
X59019047Y-50323809D02*
X59209523Y-50895238D01*
X58714285Y-50895238D01*
X58485714Y-50361904D02*
X57952380Y-50361904D01*
X58295238Y-51161904D01*
X59514285Y-55661904D02*
X59780952Y-55280952D01*
X59971428Y-55661904D02*
X59971428Y-54861904D01*
X59666666Y-54861904D01*
X59590476Y-54900000D01*
X59552380Y-54938095D01*
X59514285Y-55014285D01*
X59514285Y-55128571D01*
X59552380Y-55204761D01*
X59590476Y-55242857D01*
X59666666Y-55280952D01*
X59971428Y-55280952D01*
X58828571Y-55128571D02*
X58828571Y-55661904D01*
X59019047Y-54823809D02*
X59209523Y-55395238D01*
X58714285Y-55395238D01*
X58066666Y-54861904D02*
X58219047Y-54861904D01*
X58295238Y-54900000D01*
X58333333Y-54938095D01*
X58409523Y-55052380D01*
X58447619Y-55204761D01*
X58447619Y-55509523D01*
X58409523Y-55585714D01*
X58371428Y-55623809D01*
X58295238Y-55661904D01*
X58142857Y-55661904D01*
X58066666Y-55623809D01*
X58028571Y-55585714D01*
X57990476Y-55509523D01*
X57990476Y-55319047D01*
X58028571Y-55242857D01*
X58066666Y-55204761D01*
X58142857Y-55166666D01*
X58295238Y-55166666D01*
X58371428Y-55204761D01*
X58409523Y-55242857D01*
X58447619Y-55319047D01*
X67361904Y-31585714D02*
X66980952Y-31319047D01*
X67361904Y-31128571D02*
X66561904Y-31128571D01*
X66561904Y-31433333D01*
X66600000Y-31509523D01*
X66638095Y-31547619D01*
X66714285Y-31585714D01*
X66828571Y-31585714D01*
X66904761Y-31547619D01*
X66942857Y-31509523D01*
X66980952Y-31433333D01*
X66980952Y-31128571D01*
X66828571Y-32271428D02*
X67361904Y-32271428D01*
X66523809Y-32080952D02*
X67095238Y-31890476D01*
X67095238Y-32385714D01*
X66561904Y-33071428D02*
X66561904Y-32690476D01*
X66942857Y-32652380D01*
X66904761Y-32690476D01*
X66866666Y-32766666D01*
X66866666Y-32957142D01*
X66904761Y-33033333D01*
X66942857Y-33071428D01*
X67019047Y-33109523D01*
X67209523Y-33109523D01*
X67285714Y-33071428D01*
X67323809Y-33033333D01*
X67361904Y-32957142D01*
X67361904Y-32766666D01*
X67323809Y-32690476D01*
X67285714Y-32652380D01*
X67361904Y-16585714D02*
X66980952Y-16319047D01*
X67361904Y-16128571D02*
X66561904Y-16128571D01*
X66561904Y-16433333D01*
X66600000Y-16509523D01*
X66638095Y-16547619D01*
X66714285Y-16585714D01*
X66828571Y-16585714D01*
X66904761Y-16547619D01*
X66942857Y-16509523D01*
X66980952Y-16433333D01*
X66980952Y-16128571D01*
X66828571Y-17271428D02*
X67361904Y-17271428D01*
X66523809Y-17080952D02*
X67095238Y-16890476D01*
X67095238Y-17385714D01*
X66828571Y-18033333D02*
X67361904Y-18033333D01*
X66523809Y-17842857D02*
X67095238Y-17652380D01*
X67095238Y-18147619D01*
X63661904Y-67385714D02*
X63280952Y-67119047D01*
X63661904Y-66928571D02*
X62861904Y-66928571D01*
X62861904Y-67233333D01*
X62900000Y-67309523D01*
X62938095Y-67347619D01*
X63014285Y-67385714D01*
X63128571Y-67385714D01*
X63204761Y-67347619D01*
X63242857Y-67309523D01*
X63280952Y-67233333D01*
X63280952Y-66928571D01*
X63128571Y-68071428D02*
X63661904Y-68071428D01*
X62823809Y-67880952D02*
X63395238Y-67690476D01*
X63395238Y-68185714D01*
X62861904Y-68414285D02*
X62861904Y-68909523D01*
X63166666Y-68642857D01*
X63166666Y-68757142D01*
X63204761Y-68833333D01*
X63242857Y-68871428D01*
X63319047Y-68909523D01*
X63509523Y-68909523D01*
X63585714Y-68871428D01*
X63623809Y-68833333D01*
X63661904Y-68757142D01*
X63661904Y-68528571D01*
X63623809Y-68452380D01*
X63585714Y-68414285D01*
X63661904Y-82285714D02*
X63280952Y-82019047D01*
X63661904Y-81828571D02*
X62861904Y-81828571D01*
X62861904Y-82133333D01*
X62900000Y-82209523D01*
X62938095Y-82247619D01*
X63014285Y-82285714D01*
X63128571Y-82285714D01*
X63204761Y-82247619D01*
X63242857Y-82209523D01*
X63280952Y-82133333D01*
X63280952Y-81828571D01*
X63128571Y-82971428D02*
X63661904Y-82971428D01*
X62823809Y-82780952D02*
X63395238Y-82590476D01*
X63395238Y-83085714D01*
X62938095Y-83352380D02*
X62900000Y-83390476D01*
X62861904Y-83466666D01*
X62861904Y-83657142D01*
X62900000Y-83733333D01*
X62938095Y-83771428D01*
X63014285Y-83809523D01*
X63090476Y-83809523D01*
X63204761Y-83771428D01*
X63661904Y-83314285D01*
X63661904Y-83809523D01*
X63361904Y-31485714D02*
X62980952Y-31219047D01*
X63361904Y-31028571D02*
X62561904Y-31028571D01*
X62561904Y-31333333D01*
X62600000Y-31409523D01*
X62638095Y-31447619D01*
X62714285Y-31485714D01*
X62828571Y-31485714D01*
X62904761Y-31447619D01*
X62942857Y-31409523D01*
X62980952Y-31333333D01*
X62980952Y-31028571D01*
X62828571Y-32171428D02*
X63361904Y-32171428D01*
X62523809Y-31980952D02*
X63095238Y-31790476D01*
X63095238Y-32285714D01*
X63361904Y-33009523D02*
X63361904Y-32552380D01*
X63361904Y-32780952D02*
X62561904Y-32780952D01*
X62676190Y-32704761D01*
X62752380Y-32628571D01*
X62790476Y-32552380D01*
X63361904Y-16585714D02*
X62980952Y-16319047D01*
X63361904Y-16128571D02*
X62561904Y-16128571D01*
X62561904Y-16433333D01*
X62600000Y-16509523D01*
X62638095Y-16547619D01*
X62714285Y-16585714D01*
X62828571Y-16585714D01*
X62904761Y-16547619D01*
X62942857Y-16509523D01*
X62980952Y-16433333D01*
X62980952Y-16128571D01*
X62828571Y-17271428D02*
X63361904Y-17271428D01*
X62523809Y-17080952D02*
X63095238Y-16890476D01*
X63095238Y-17385714D01*
X62561904Y-17842857D02*
X62561904Y-17919047D01*
X62600000Y-17995238D01*
X62638095Y-18033333D01*
X62714285Y-18071428D01*
X62866666Y-18109523D01*
X63057142Y-18109523D01*
X63209523Y-18071428D01*
X63285714Y-18033333D01*
X63323809Y-17995238D01*
X63361904Y-17919047D01*
X63361904Y-17842857D01*
X63323809Y-17766666D01*
X63285714Y-17728571D01*
X63209523Y-17690476D01*
X63057142Y-17652380D01*
X62866666Y-17652380D01*
X62714285Y-17690476D01*
X62638095Y-17728571D01*
X62600000Y-17766666D01*
X62561904Y-17842857D01*
X67661904Y-67385714D02*
X67280952Y-67119047D01*
X67661904Y-66928571D02*
X66861904Y-66928571D01*
X66861904Y-67233333D01*
X66900000Y-67309523D01*
X66938095Y-67347619D01*
X67014285Y-67385714D01*
X67128571Y-67385714D01*
X67204761Y-67347619D01*
X67242857Y-67309523D01*
X67280952Y-67233333D01*
X67280952Y-66928571D01*
X66861904Y-67652380D02*
X66861904Y-68147619D01*
X67166666Y-67880952D01*
X67166666Y-67995238D01*
X67204761Y-68071428D01*
X67242857Y-68109523D01*
X67319047Y-68147619D01*
X67509523Y-68147619D01*
X67585714Y-68109523D01*
X67623809Y-68071428D01*
X67661904Y-67995238D01*
X67661904Y-67766666D01*
X67623809Y-67690476D01*
X67585714Y-67652380D01*
X67661904Y-68528571D02*
X67661904Y-68680952D01*
X67623809Y-68757142D01*
X67585714Y-68795238D01*
X67471428Y-68871428D01*
X67319047Y-68909523D01*
X67014285Y-68909523D01*
X66938095Y-68871428D01*
X66900000Y-68833333D01*
X66861904Y-68757142D01*
X66861904Y-68604761D01*
X66900000Y-68528571D01*
X66938095Y-68490476D01*
X67014285Y-68452380D01*
X67204761Y-68452380D01*
X67280952Y-68490476D01*
X67319047Y-68528571D01*
X67357142Y-68604761D01*
X67357142Y-68757142D01*
X67319047Y-68833333D01*
X67280952Y-68871428D01*
X67204761Y-68909523D01*
X66861904Y-91885714D02*
X66480952Y-91619047D01*
X66861904Y-91428571D02*
X66061904Y-91428571D01*
X66061904Y-91733333D01*
X66100000Y-91809523D01*
X66138095Y-91847619D01*
X66214285Y-91885714D01*
X66328571Y-91885714D01*
X66404761Y-91847619D01*
X66442857Y-91809523D01*
X66480952Y-91733333D01*
X66480952Y-91428571D01*
X66061904Y-92152380D02*
X66061904Y-92647619D01*
X66366666Y-92380952D01*
X66366666Y-92495238D01*
X66404761Y-92571428D01*
X66442857Y-92609523D01*
X66519047Y-92647619D01*
X66709523Y-92647619D01*
X66785714Y-92609523D01*
X66823809Y-92571428D01*
X66861904Y-92495238D01*
X66861904Y-92266666D01*
X66823809Y-92190476D01*
X66785714Y-92152380D01*
X66404761Y-93104761D02*
X66366666Y-93028571D01*
X66328571Y-92990476D01*
X66252380Y-92952380D01*
X66214285Y-92952380D01*
X66138095Y-92990476D01*
X66100000Y-93028571D01*
X66061904Y-93104761D01*
X66061904Y-93257142D01*
X66100000Y-93333333D01*
X66138095Y-93371428D01*
X66214285Y-93409523D01*
X66252380Y-93409523D01*
X66328571Y-93371428D01*
X66366666Y-93333333D01*
X66404761Y-93257142D01*
X66404761Y-93104761D01*
X66442857Y-93028571D01*
X66480952Y-92990476D01*
X66557142Y-92952380D01*
X66709523Y-92952380D01*
X66785714Y-92990476D01*
X66823809Y-93028571D01*
X66861904Y-93104761D01*
X66861904Y-93257142D01*
X66823809Y-93333333D01*
X66785714Y-93371428D01*
X66709523Y-93409523D01*
X66557142Y-93409523D01*
X66480952Y-93371428D01*
X66442857Y-93333333D01*
X66404761Y-93257142D01*
X60814285Y-23661904D02*
X61080952Y-23280952D01*
X61271428Y-23661904D02*
X61271428Y-22861904D01*
X60966666Y-22861904D01*
X60890476Y-22900000D01*
X60852380Y-22938095D01*
X60814285Y-23014285D01*
X60814285Y-23128571D01*
X60852380Y-23204761D01*
X60890476Y-23242857D01*
X60966666Y-23280952D01*
X61271428Y-23280952D01*
X60547619Y-22861904D02*
X60052380Y-22861904D01*
X60319047Y-23166666D01*
X60204761Y-23166666D01*
X60128571Y-23204761D01*
X60090476Y-23242857D01*
X60052380Y-23319047D01*
X60052380Y-23509523D01*
X60090476Y-23585714D01*
X60128571Y-23623809D01*
X60204761Y-23661904D01*
X60433333Y-23661904D01*
X60509523Y-23623809D01*
X60547619Y-23585714D01*
X59785714Y-22861904D02*
X59290476Y-22861904D01*
X59557142Y-23166666D01*
X59442857Y-23166666D01*
X59366666Y-23204761D01*
X59328571Y-23242857D01*
X59290476Y-23319047D01*
X59290476Y-23509523D01*
X59328571Y-23585714D01*
X59366666Y-23623809D01*
X59442857Y-23661904D01*
X59671428Y-23661904D01*
X59747619Y-23623809D01*
X59785714Y-23585714D01*
X70514285Y-26361904D02*
X70780952Y-25980952D01*
X70971428Y-26361904D02*
X70971428Y-25561904D01*
X70666666Y-25561904D01*
X70590476Y-25600000D01*
X70552380Y-25638095D01*
X70514285Y-25714285D01*
X70514285Y-25828571D01*
X70552380Y-25904761D01*
X70590476Y-25942857D01*
X70666666Y-25980952D01*
X70971428Y-25980952D01*
X70247619Y-25561904D02*
X69752380Y-25561904D01*
X70019047Y-25866666D01*
X69904761Y-25866666D01*
X69828571Y-25904761D01*
X69790476Y-25942857D01*
X69752380Y-26019047D01*
X69752380Y-26209523D01*
X69790476Y-26285714D01*
X69828571Y-26323809D01*
X69904761Y-26361904D01*
X70133333Y-26361904D01*
X70209523Y-26323809D01*
X70247619Y-26285714D01*
X69447619Y-25638095D02*
X69409523Y-25600000D01*
X69333333Y-25561904D01*
X69142857Y-25561904D01*
X69066666Y-25600000D01*
X69028571Y-25638095D01*
X68990476Y-25714285D01*
X68990476Y-25790476D01*
X69028571Y-25904761D01*
X69485714Y-26361904D01*
X68990476Y-26361904D01*
X70214285Y-77161904D02*
X70480952Y-76780952D01*
X70671428Y-77161904D02*
X70671428Y-76361904D01*
X70366666Y-76361904D01*
X70290476Y-76400000D01*
X70252380Y-76438095D01*
X70214285Y-76514285D01*
X70214285Y-76628571D01*
X70252380Y-76704761D01*
X70290476Y-76742857D01*
X70366666Y-76780952D01*
X70671428Y-76780952D01*
X69947619Y-76361904D02*
X69452380Y-76361904D01*
X69719047Y-76666666D01*
X69604761Y-76666666D01*
X69528571Y-76704761D01*
X69490476Y-76742857D01*
X69452380Y-76819047D01*
X69452380Y-77009523D01*
X69490476Y-77085714D01*
X69528571Y-77123809D01*
X69604761Y-77161904D01*
X69833333Y-77161904D01*
X69909523Y-77123809D01*
X69947619Y-77085714D01*
X68957142Y-76361904D02*
X68880952Y-76361904D01*
X68804761Y-76400000D01*
X68766666Y-76438095D01*
X68728571Y-76514285D01*
X68690476Y-76666666D01*
X68690476Y-76857142D01*
X68728571Y-77009523D01*
X68766666Y-77085714D01*
X68804761Y-77123809D01*
X68880952Y-77161904D01*
X68957142Y-77161904D01*
X69033333Y-77123809D01*
X69071428Y-77085714D01*
X69109523Y-77009523D01*
X69147619Y-76857142D01*
X69147619Y-76666666D01*
X69109523Y-76514285D01*
X69071428Y-76438095D01*
X69033333Y-76400000D01*
X68957142Y-76361904D01*
X75361904Y-29985714D02*
X74980952Y-29719047D01*
X75361904Y-29528571D02*
X74561904Y-29528571D01*
X74561904Y-29833333D01*
X74600000Y-29909523D01*
X74638095Y-29947619D01*
X74714285Y-29985714D01*
X74828571Y-29985714D01*
X74904761Y-29947619D01*
X74942857Y-29909523D01*
X74980952Y-29833333D01*
X74980952Y-29528571D01*
X74638095Y-30290476D02*
X74600000Y-30328571D01*
X74561904Y-30404761D01*
X74561904Y-30595238D01*
X74600000Y-30671428D01*
X74638095Y-30709523D01*
X74714285Y-30747619D01*
X74790476Y-30747619D01*
X74904761Y-30709523D01*
X75361904Y-30252380D01*
X75361904Y-30747619D01*
X75361904Y-31128571D02*
X75361904Y-31280952D01*
X75323809Y-31357142D01*
X75285714Y-31395238D01*
X75171428Y-31471428D01*
X75019047Y-31509523D01*
X74714285Y-31509523D01*
X74638095Y-31471428D01*
X74600000Y-31433333D01*
X74561904Y-31357142D01*
X74561904Y-31204761D01*
X74600000Y-31128571D01*
X74638095Y-31090476D01*
X74714285Y-31052380D01*
X74904761Y-31052380D01*
X74980952Y-31090476D01*
X75019047Y-31128571D01*
X75057142Y-31204761D01*
X75057142Y-31357142D01*
X75019047Y-31433333D01*
X74980952Y-31471428D01*
X74904761Y-31509523D01*
X74061904Y-66485714D02*
X73680952Y-66219047D01*
X74061904Y-66028571D02*
X73261904Y-66028571D01*
X73261904Y-66333333D01*
X73300000Y-66409523D01*
X73338095Y-66447619D01*
X73414285Y-66485714D01*
X73528571Y-66485714D01*
X73604761Y-66447619D01*
X73642857Y-66409523D01*
X73680952Y-66333333D01*
X73680952Y-66028571D01*
X73338095Y-66790476D02*
X73300000Y-66828571D01*
X73261904Y-66904761D01*
X73261904Y-67095238D01*
X73300000Y-67171428D01*
X73338095Y-67209523D01*
X73414285Y-67247619D01*
X73490476Y-67247619D01*
X73604761Y-67209523D01*
X74061904Y-66752380D01*
X74061904Y-67247619D01*
X73604761Y-67704761D02*
X73566666Y-67628571D01*
X73528571Y-67590476D01*
X73452380Y-67552380D01*
X73414285Y-67552380D01*
X73338095Y-67590476D01*
X73300000Y-67628571D01*
X73261904Y-67704761D01*
X73261904Y-67857142D01*
X73300000Y-67933333D01*
X73338095Y-67971428D01*
X73414285Y-68009523D01*
X73452380Y-68009523D01*
X73528571Y-67971428D01*
X73566666Y-67933333D01*
X73604761Y-67857142D01*
X73604761Y-67704761D01*
X73642857Y-67628571D01*
X73680952Y-67590476D01*
X73757142Y-67552380D01*
X73909523Y-67552380D01*
X73985714Y-67590476D01*
X74023809Y-67628571D01*
X74061904Y-67704761D01*
X74061904Y-67857142D01*
X74023809Y-67933333D01*
X73985714Y-67971428D01*
X73909523Y-68009523D01*
X73757142Y-68009523D01*
X73680952Y-67971428D01*
X73642857Y-67933333D01*
X73604761Y-67857142D01*
X75361904Y-37985714D02*
X74980952Y-37719047D01*
X75361904Y-37528571D02*
X74561904Y-37528571D01*
X74561904Y-37833333D01*
X74600000Y-37909523D01*
X74638095Y-37947619D01*
X74714285Y-37985714D01*
X74828571Y-37985714D01*
X74904761Y-37947619D01*
X74942857Y-37909523D01*
X74980952Y-37833333D01*
X74980952Y-37528571D01*
X74638095Y-38290476D02*
X74600000Y-38328571D01*
X74561904Y-38404761D01*
X74561904Y-38595238D01*
X74600000Y-38671428D01*
X74638095Y-38709523D01*
X74714285Y-38747619D01*
X74790476Y-38747619D01*
X74904761Y-38709523D01*
X75361904Y-38252380D01*
X75361904Y-38747619D01*
X74561904Y-39014285D02*
X74561904Y-39547619D01*
X75361904Y-39204761D01*
X74061904Y-63485714D02*
X73680952Y-63219047D01*
X74061904Y-63028571D02*
X73261904Y-63028571D01*
X73261904Y-63333333D01*
X73300000Y-63409523D01*
X73338095Y-63447619D01*
X73414285Y-63485714D01*
X73528571Y-63485714D01*
X73604761Y-63447619D01*
X73642857Y-63409523D01*
X73680952Y-63333333D01*
X73680952Y-63028571D01*
X73338095Y-63790476D02*
X73300000Y-63828571D01*
X73261904Y-63904761D01*
X73261904Y-64095238D01*
X73300000Y-64171428D01*
X73338095Y-64209523D01*
X73414285Y-64247619D01*
X73490476Y-64247619D01*
X73604761Y-64209523D01*
X74061904Y-63752380D01*
X74061904Y-64247619D01*
X73261904Y-64933333D02*
X73261904Y-64780952D01*
X73300000Y-64704761D01*
X73338095Y-64666666D01*
X73452380Y-64590476D01*
X73604761Y-64552380D01*
X73909523Y-64552380D01*
X73985714Y-64590476D01*
X74023809Y-64628571D01*
X74061904Y-64704761D01*
X74061904Y-64857142D01*
X74023809Y-64933333D01*
X73985714Y-64971428D01*
X73909523Y-65009523D01*
X73719047Y-65009523D01*
X73642857Y-64971428D01*
X73604761Y-64933333D01*
X73566666Y-64857142D01*
X73566666Y-64704761D01*
X73604761Y-64628571D01*
X73642857Y-64590476D01*
X73719047Y-64552380D01*
X74014285Y-44361904D02*
X74280952Y-43980952D01*
X74471428Y-44361904D02*
X74471428Y-43561904D01*
X74166666Y-43561904D01*
X74090476Y-43600000D01*
X74052380Y-43638095D01*
X74014285Y-43714285D01*
X74014285Y-43828571D01*
X74052380Y-43904761D01*
X74090476Y-43942857D01*
X74166666Y-43980952D01*
X74471428Y-43980952D01*
X73709523Y-43638095D02*
X73671428Y-43600000D01*
X73595238Y-43561904D01*
X73404761Y-43561904D01*
X73328571Y-43600000D01*
X73290476Y-43638095D01*
X73252380Y-43714285D01*
X73252380Y-43790476D01*
X73290476Y-43904761D01*
X73747619Y-44361904D01*
X73252380Y-44361904D01*
X72985714Y-43561904D02*
X72490476Y-43561904D01*
X72757142Y-43866666D01*
X72642857Y-43866666D01*
X72566666Y-43904761D01*
X72528571Y-43942857D01*
X72490476Y-44019047D01*
X72490476Y-44209523D01*
X72528571Y-44285714D01*
X72566666Y-44323809D01*
X72642857Y-44361904D01*
X72871428Y-44361904D01*
X72947619Y-44323809D01*
X72985714Y-44285714D01*
X74014285Y-42361904D02*
X74280952Y-41980952D01*
X74471428Y-42361904D02*
X74471428Y-41561904D01*
X74166666Y-41561904D01*
X74090476Y-41600000D01*
X74052380Y-41638095D01*
X74014285Y-41714285D01*
X74014285Y-41828571D01*
X74052380Y-41904761D01*
X74090476Y-41942857D01*
X74166666Y-41980952D01*
X74471428Y-41980952D01*
X73709523Y-41638095D02*
X73671428Y-41600000D01*
X73595238Y-41561904D01*
X73404761Y-41561904D01*
X73328571Y-41600000D01*
X73290476Y-41638095D01*
X73252380Y-41714285D01*
X73252380Y-41790476D01*
X73290476Y-41904761D01*
X73747619Y-42361904D01*
X73252380Y-42361904D01*
X72947619Y-41638095D02*
X72909523Y-41600000D01*
X72833333Y-41561904D01*
X72642857Y-41561904D01*
X72566666Y-41600000D01*
X72528571Y-41638095D01*
X72490476Y-41714285D01*
X72490476Y-41790476D01*
X72528571Y-41904761D01*
X72985714Y-42361904D01*
X72490476Y-42361904D01*
X65138095Y-38514285D02*
X65519047Y-38780952D01*
X65138095Y-38971428D02*
X65938095Y-38971428D01*
X65938095Y-38666666D01*
X65900000Y-38590476D01*
X65861904Y-38552380D01*
X65785714Y-38514285D01*
X65671428Y-38514285D01*
X65595238Y-38552380D01*
X65557142Y-38590476D01*
X65519047Y-38666666D01*
X65519047Y-38971428D01*
X65861904Y-38209523D02*
X65900000Y-38171428D01*
X65938095Y-38095238D01*
X65938095Y-37904761D01*
X65900000Y-37828571D01*
X65861904Y-37790476D01*
X65785714Y-37752380D01*
X65709523Y-37752380D01*
X65595238Y-37790476D01*
X65138095Y-38247619D01*
X65138095Y-37752380D01*
X65138095Y-36990476D02*
X65138095Y-37447619D01*
X65138095Y-37219047D02*
X65938095Y-37219047D01*
X65823809Y-37295238D01*
X65747619Y-37371428D01*
X65709523Y-37447619D01*
X69938095Y-38514285D02*
X70319047Y-38780952D01*
X69938095Y-38971428D02*
X70738095Y-38971428D01*
X70738095Y-38666666D01*
X70700000Y-38590476D01*
X70661904Y-38552380D01*
X70585714Y-38514285D01*
X70471428Y-38514285D01*
X70395238Y-38552380D01*
X70357142Y-38590476D01*
X70319047Y-38666666D01*
X70319047Y-38971428D01*
X70661904Y-38209523D02*
X70700000Y-38171428D01*
X70738095Y-38095238D01*
X70738095Y-37904761D01*
X70700000Y-37828571D01*
X70661904Y-37790476D01*
X70585714Y-37752380D01*
X70509523Y-37752380D01*
X70395238Y-37790476D01*
X69938095Y-38247619D01*
X69938095Y-37752380D01*
X70738095Y-37257142D02*
X70738095Y-37180952D01*
X70700000Y-37104761D01*
X70661904Y-37066666D01*
X70585714Y-37028571D01*
X70433333Y-36990476D01*
X70242857Y-36990476D01*
X70090476Y-37028571D01*
X70014285Y-37066666D01*
X69976190Y-37104761D01*
X69938095Y-37180952D01*
X69938095Y-37257142D01*
X69976190Y-37333333D01*
X70014285Y-37371428D01*
X70090476Y-37409523D01*
X70242857Y-37447619D01*
X70433333Y-37447619D01*
X70585714Y-37409523D01*
X70661904Y-37371428D01*
X70700000Y-37333333D01*
X70738095Y-37257142D01*
X71514285Y-55061904D02*
X71780952Y-54680952D01*
X71971428Y-55061904D02*
X71971428Y-54261904D01*
X71666666Y-54261904D01*
X71590476Y-54300000D01*
X71552380Y-54338095D01*
X71514285Y-54414285D01*
X71514285Y-54528571D01*
X71552380Y-54604761D01*
X71590476Y-54642857D01*
X71666666Y-54680952D01*
X71971428Y-54680952D01*
X70752380Y-55061904D02*
X71209523Y-55061904D01*
X70980952Y-55061904D02*
X70980952Y-54261904D01*
X71057142Y-54376190D01*
X71133333Y-54452380D01*
X71209523Y-54490476D01*
X70371428Y-55061904D02*
X70219047Y-55061904D01*
X70142857Y-55023809D01*
X70104761Y-54985714D01*
X70028571Y-54871428D01*
X69990476Y-54719047D01*
X69990476Y-54414285D01*
X70028571Y-54338095D01*
X70066666Y-54300000D01*
X70142857Y-54261904D01*
X70295238Y-54261904D01*
X70371428Y-54300000D01*
X70409523Y-54338095D01*
X70447619Y-54414285D01*
X70447619Y-54604761D01*
X70409523Y-54680952D01*
X70371428Y-54719047D01*
X70295238Y-54757142D01*
X70142857Y-54757142D01*
X70066666Y-54719047D01*
X70028571Y-54680952D01*
X69990476Y-54604761D01*
X71514285Y-59661904D02*
X71780952Y-59280952D01*
X71971428Y-59661904D02*
X71971428Y-58861904D01*
X71666666Y-58861904D01*
X71590476Y-58900000D01*
X71552380Y-58938095D01*
X71514285Y-59014285D01*
X71514285Y-59128571D01*
X71552380Y-59204761D01*
X71590476Y-59242857D01*
X71666666Y-59280952D01*
X71971428Y-59280952D01*
X70752380Y-59661904D02*
X71209523Y-59661904D01*
X70980952Y-59661904D02*
X70980952Y-58861904D01*
X71057142Y-58976190D01*
X71133333Y-59052380D01*
X71209523Y-59090476D01*
X70295238Y-59204761D02*
X70371428Y-59166666D01*
X70409523Y-59128571D01*
X70447619Y-59052380D01*
X70447619Y-59014285D01*
X70409523Y-58938095D01*
X70371428Y-58900000D01*
X70295238Y-58861904D01*
X70142857Y-58861904D01*
X70066666Y-58900000D01*
X70028571Y-58938095D01*
X69990476Y-59014285D01*
X69990476Y-59052380D01*
X70028571Y-59128571D01*
X70066666Y-59166666D01*
X70142857Y-59204761D01*
X70295238Y-59204761D01*
X70371428Y-59242857D01*
X70409523Y-59280952D01*
X70447619Y-59357142D01*
X70447619Y-59509523D01*
X70409523Y-59585714D01*
X70371428Y-59623809D01*
X70295238Y-59661904D01*
X70142857Y-59661904D01*
X70066666Y-59623809D01*
X70028571Y-59585714D01*
X69990476Y-59509523D01*
X69990476Y-59357142D01*
X70028571Y-59280952D01*
X70066666Y-59242857D01*
X70142857Y-59204761D01*
X66161904Y-61485714D02*
X65780952Y-61219047D01*
X66161904Y-61028571D02*
X65361904Y-61028571D01*
X65361904Y-61333333D01*
X65400000Y-61409523D01*
X65438095Y-61447619D01*
X65514285Y-61485714D01*
X65628571Y-61485714D01*
X65704761Y-61447619D01*
X65742857Y-61409523D01*
X65780952Y-61333333D01*
X65780952Y-61028571D01*
X66161904Y-62247619D02*
X66161904Y-61790476D01*
X66161904Y-62019047D02*
X65361904Y-62019047D01*
X65476190Y-61942857D01*
X65552380Y-61866666D01*
X65590476Y-61790476D01*
X65361904Y-62514285D02*
X65361904Y-63047619D01*
X66161904Y-62704761D01*
X70761904Y-61485714D02*
X70380952Y-61219047D01*
X70761904Y-61028571D02*
X69961904Y-61028571D01*
X69961904Y-61333333D01*
X70000000Y-61409523D01*
X70038095Y-61447619D01*
X70114285Y-61485714D01*
X70228571Y-61485714D01*
X70304761Y-61447619D01*
X70342857Y-61409523D01*
X70380952Y-61333333D01*
X70380952Y-61028571D01*
X70761904Y-62247619D02*
X70761904Y-61790476D01*
X70761904Y-62019047D02*
X69961904Y-62019047D01*
X70076190Y-61942857D01*
X70152380Y-61866666D01*
X70190476Y-61790476D01*
X69961904Y-62933333D02*
X69961904Y-62780952D01*
X70000000Y-62704761D01*
X70038095Y-62666666D01*
X70152380Y-62590476D01*
X70304761Y-62552380D01*
X70609523Y-62552380D01*
X70685714Y-62590476D01*
X70723809Y-62628571D01*
X70761904Y-62704761D01*
X70761904Y-62857142D01*
X70723809Y-62933333D01*
X70685714Y-62971428D01*
X70609523Y-63009523D01*
X70419047Y-63009523D01*
X70342857Y-62971428D01*
X70304761Y-62933333D01*
X70266666Y-62857142D01*
X70266666Y-62704761D01*
X70304761Y-62628571D01*
X70342857Y-62590476D01*
X70419047Y-62552380D01*
X63061904Y-41485714D02*
X62680952Y-41219047D01*
X63061904Y-41028571D02*
X62261904Y-41028571D01*
X62261904Y-41333333D01*
X62300000Y-41409523D01*
X62338095Y-41447619D01*
X62414285Y-41485714D01*
X62528571Y-41485714D01*
X62604761Y-41447619D01*
X62642857Y-41409523D01*
X62680952Y-41333333D01*
X62680952Y-41028571D01*
X63061904Y-42247619D02*
X63061904Y-41790476D01*
X63061904Y-42019047D02*
X62261904Y-42019047D01*
X62376190Y-41942857D01*
X62452380Y-41866666D01*
X62490476Y-41790476D01*
X62261904Y-42971428D02*
X62261904Y-42590476D01*
X62642857Y-42552380D01*
X62604761Y-42590476D01*
X62566666Y-42666666D01*
X62566666Y-42857142D01*
X62604761Y-42933333D01*
X62642857Y-42971428D01*
X62719047Y-43009523D01*
X62909523Y-43009523D01*
X62985714Y-42971428D01*
X63023809Y-42933333D01*
X63061904Y-42857142D01*
X63061904Y-42666666D01*
X63023809Y-42590476D01*
X62985714Y-42552380D01*
X63061904Y-44485714D02*
X62680952Y-44219047D01*
X63061904Y-44028571D02*
X62261904Y-44028571D01*
X62261904Y-44333333D01*
X62300000Y-44409523D01*
X62338095Y-44447619D01*
X62414285Y-44485714D01*
X62528571Y-44485714D01*
X62604761Y-44447619D01*
X62642857Y-44409523D01*
X62680952Y-44333333D01*
X62680952Y-44028571D01*
X63061904Y-45247619D02*
X63061904Y-44790476D01*
X63061904Y-45019047D02*
X62261904Y-45019047D01*
X62376190Y-44942857D01*
X62452380Y-44866666D01*
X62490476Y-44790476D01*
X62528571Y-45933333D02*
X63061904Y-45933333D01*
X62223809Y-45742857D02*
X62795238Y-45552380D01*
X62795238Y-46047619D01*
X63061904Y-57485714D02*
X62680952Y-57219047D01*
X63061904Y-57028571D02*
X62261904Y-57028571D01*
X62261904Y-57333333D01*
X62300000Y-57409523D01*
X62338095Y-57447619D01*
X62414285Y-57485714D01*
X62528571Y-57485714D01*
X62604761Y-57447619D01*
X62642857Y-57409523D01*
X62680952Y-57333333D01*
X62680952Y-57028571D01*
X63061904Y-58247619D02*
X63061904Y-57790476D01*
X63061904Y-58019047D02*
X62261904Y-58019047D01*
X62376190Y-57942857D01*
X62452380Y-57866666D01*
X62490476Y-57790476D01*
X62261904Y-58514285D02*
X62261904Y-59009523D01*
X62566666Y-58742857D01*
X62566666Y-58857142D01*
X62604761Y-58933333D01*
X62642857Y-58971428D01*
X62719047Y-59009523D01*
X62909523Y-59009523D01*
X62985714Y-58971428D01*
X63023809Y-58933333D01*
X63061904Y-58857142D01*
X63061904Y-58628571D01*
X63023809Y-58552380D01*
X62985714Y-58514285D01*
X63061904Y-54485714D02*
X62680952Y-54219047D01*
X63061904Y-54028571D02*
X62261904Y-54028571D01*
X62261904Y-54333333D01*
X62300000Y-54409523D01*
X62338095Y-54447619D01*
X62414285Y-54485714D01*
X62528571Y-54485714D01*
X62604761Y-54447619D01*
X62642857Y-54409523D01*
X62680952Y-54333333D01*
X62680952Y-54028571D01*
X63061904Y-55247619D02*
X63061904Y-54790476D01*
X63061904Y-55019047D02*
X62261904Y-55019047D01*
X62376190Y-54942857D01*
X62452380Y-54866666D01*
X62490476Y-54790476D01*
X62338095Y-55552380D02*
X62300000Y-55590476D01*
X62261904Y-55666666D01*
X62261904Y-55857142D01*
X62300000Y-55933333D01*
X62338095Y-55971428D01*
X62414285Y-56009523D01*
X62490476Y-56009523D01*
X62604761Y-55971428D01*
X63061904Y-55514285D01*
X63061904Y-56009523D01*
X71252380Y-52661904D02*
X71633333Y-52661904D01*
X71633333Y-51861904D01*
X70985714Y-52661904D02*
X70985714Y-51861904D01*
X70795238Y-51861904D01*
X70680952Y-51900000D01*
X70604761Y-51976190D01*
X70566666Y-52052380D01*
X70528571Y-52204761D01*
X70528571Y-52319047D01*
X70566666Y-52471428D01*
X70604761Y-52547619D01*
X70680952Y-52623809D01*
X70795238Y-52661904D01*
X70985714Y-52661904D01*
X70033333Y-51861904D02*
X69880952Y-51861904D01*
X69804761Y-51900000D01*
X69728571Y-51976190D01*
X69690476Y-52128571D01*
X69690476Y-52395238D01*
X69728571Y-52547619D01*
X69804761Y-52623809D01*
X69880952Y-52661904D01*
X70033333Y-52661904D01*
X70109523Y-52623809D01*
X70185714Y-52547619D01*
X70223809Y-52395238D01*
X70223809Y-52128571D01*
X70185714Y-51976190D01*
X70109523Y-51900000D01*
X70033333Y-51861904D01*
X68928571Y-52661904D02*
X69385714Y-52661904D01*
X69157142Y-52661904D02*
X69157142Y-51861904D01*
X69233333Y-51976190D01*
X69309523Y-52052380D01*
X69385714Y-52090476D01*
X61880952Y-22061904D02*
X61880952Y-21261904D01*
X61042857Y-21985714D02*
X61080952Y-22023809D01*
X61195238Y-22061904D01*
X61271428Y-22061904D01*
X61385714Y-22023809D01*
X61461904Y-21947619D01*
X61500000Y-21871428D01*
X61538095Y-21719047D01*
X61538095Y-21604761D01*
X61500000Y-21452380D01*
X61461904Y-21376190D01*
X61385714Y-21300000D01*
X61271428Y-21261904D01*
X61195238Y-21261904D01*
X61080952Y-21300000D01*
X61042857Y-21338095D01*
X60776190Y-21261904D02*
X60242857Y-21261904D01*
X60585714Y-22061904D01*
X64361904Y-74619047D02*
X63561904Y-74619047D01*
X64285714Y-75457142D02*
X64323809Y-75419047D01*
X64361904Y-75304761D01*
X64361904Y-75228571D01*
X64323809Y-75114285D01*
X64247619Y-75038095D01*
X64171428Y-75000000D01*
X64019047Y-74961904D01*
X63904761Y-74961904D01*
X63752380Y-75000000D01*
X63676190Y-75038095D01*
X63600000Y-75114285D01*
X63561904Y-75228571D01*
X63561904Y-75304761D01*
X63600000Y-75419047D01*
X63638095Y-75457142D01*
X63561904Y-76142857D02*
X63561904Y-75990476D01*
X63600000Y-75914285D01*
X63638095Y-75876190D01*
X63752380Y-75800000D01*
X63904761Y-75761904D01*
X64209523Y-75761904D01*
X64285714Y-75800000D01*
X64323809Y-75838095D01*
X64361904Y-75914285D01*
X64361904Y-76066666D01*
X64323809Y-76142857D01*
X64285714Y-76180952D01*
X64209523Y-76219047D01*
X64019047Y-76219047D01*
X63942857Y-76180952D01*
X63904761Y-76142857D01*
X63866666Y-76066666D01*
X63866666Y-75914285D01*
X63904761Y-75838095D01*
X63942857Y-75800000D01*
X64019047Y-75761904D01*
X81661904Y-49219047D02*
X80861904Y-49219047D01*
X81585714Y-50057142D02*
X81623809Y-50019047D01*
X81661904Y-49904761D01*
X81661904Y-49828571D01*
X81623809Y-49714285D01*
X81547619Y-49638095D01*
X81471428Y-49600000D01*
X81319047Y-49561904D01*
X81204761Y-49561904D01*
X81052380Y-49600000D01*
X80976190Y-49638095D01*
X80900000Y-49714285D01*
X80861904Y-49828571D01*
X80861904Y-49904761D01*
X80900000Y-50019047D01*
X80938095Y-50057142D01*
X80861904Y-50780952D02*
X80861904Y-50400000D01*
X81242857Y-50361904D01*
X81204761Y-50400000D01*
X81166666Y-50476190D01*
X81166666Y-50666666D01*
X81204761Y-50742857D01*
X81242857Y-50780952D01*
X81319047Y-50819047D01*
X81509523Y-50819047D01*
X81585714Y-50780952D01*
X81623809Y-50742857D01*
X81661904Y-50666666D01*
X81661904Y-50476190D01*
X81623809Y-50400000D01*
X81585714Y-50361904D01*
X56514285Y-38985714D02*
X56552380Y-39023809D01*
X56666666Y-39061904D01*
X56742857Y-39061904D01*
X56857142Y-39023809D01*
X56933333Y-38947619D01*
X56971428Y-38871428D01*
X57009523Y-38719047D01*
X57009523Y-38604761D01*
X56971428Y-38452380D01*
X56933333Y-38376190D01*
X56857142Y-38300000D01*
X56742857Y-38261904D01*
X56666666Y-38261904D01*
X56552380Y-38300000D01*
X56514285Y-38338095D01*
X56247619Y-38261904D02*
X55752380Y-38261904D01*
X56019047Y-38566666D01*
X55904761Y-38566666D01*
X55828571Y-38604761D01*
X55790476Y-38642857D01*
X55752380Y-38719047D01*
X55752380Y-38909523D01*
X55790476Y-38985714D01*
X55828571Y-39023809D01*
X55904761Y-39061904D01*
X56133333Y-39061904D01*
X56209523Y-39023809D01*
X56247619Y-38985714D01*
X55371428Y-39061904D02*
X55219047Y-39061904D01*
X55142857Y-39023809D01*
X55104761Y-38985714D01*
X55028571Y-38871428D01*
X54990476Y-38719047D01*
X54990476Y-38414285D01*
X55028571Y-38338095D01*
X55066666Y-38300000D01*
X55142857Y-38261904D01*
X55295238Y-38261904D01*
X55371428Y-38300000D01*
X55409523Y-38338095D01*
X55447619Y-38414285D01*
X55447619Y-38604761D01*
X55409523Y-38680952D01*
X55371428Y-38719047D01*
X55295238Y-38757142D01*
X55142857Y-38757142D01*
X55066666Y-38719047D01*
X55028571Y-38680952D01*
X54990476Y-38604761D01*
X49914285Y-40285714D02*
X49952380Y-40323809D01*
X50066666Y-40361904D01*
X50142857Y-40361904D01*
X50257142Y-40323809D01*
X50333333Y-40247619D01*
X50371428Y-40171428D01*
X50409523Y-40019047D01*
X50409523Y-39904761D01*
X50371428Y-39752380D01*
X50333333Y-39676190D01*
X50257142Y-39600000D01*
X50142857Y-39561904D01*
X50066666Y-39561904D01*
X49952380Y-39600000D01*
X49914285Y-39638095D01*
X49647619Y-39561904D02*
X49152380Y-39561904D01*
X49419047Y-39866666D01*
X49304761Y-39866666D01*
X49228571Y-39904761D01*
X49190476Y-39942857D01*
X49152380Y-40019047D01*
X49152380Y-40209523D01*
X49190476Y-40285714D01*
X49228571Y-40323809D01*
X49304761Y-40361904D01*
X49533333Y-40361904D01*
X49609523Y-40323809D01*
X49647619Y-40285714D01*
X48695238Y-39904761D02*
X48771428Y-39866666D01*
X48809523Y-39828571D01*
X48847619Y-39752380D01*
X48847619Y-39714285D01*
X48809523Y-39638095D01*
X48771428Y-39600000D01*
X48695238Y-39561904D01*
X48542857Y-39561904D01*
X48466666Y-39600000D01*
X48428571Y-39638095D01*
X48390476Y-39714285D01*
X48390476Y-39752380D01*
X48428571Y-39828571D01*
X48466666Y-39866666D01*
X48542857Y-39904761D01*
X48695238Y-39904761D01*
X48771428Y-39942857D01*
X48809523Y-39980952D01*
X48847619Y-40057142D01*
X48847619Y-40209523D01*
X48809523Y-40285714D01*
X48771428Y-40323809D01*
X48695238Y-40361904D01*
X48542857Y-40361904D01*
X48466666Y-40323809D01*
X48428571Y-40285714D01*
X48390476Y-40209523D01*
X48390476Y-40057142D01*
X48428571Y-39980952D01*
X48466666Y-39942857D01*
X48542857Y-39904761D01*
X52514285Y-61685714D02*
X52552380Y-61723809D01*
X52666666Y-61761904D01*
X52742857Y-61761904D01*
X52857142Y-61723809D01*
X52933333Y-61647619D01*
X52971428Y-61571428D01*
X53009523Y-61419047D01*
X53009523Y-61304761D01*
X52971428Y-61152380D01*
X52933333Y-61076190D01*
X52857142Y-61000000D01*
X52742857Y-60961904D01*
X52666666Y-60961904D01*
X52552380Y-61000000D01*
X52514285Y-61038095D01*
X52247619Y-60961904D02*
X51752380Y-60961904D01*
X52019047Y-61266666D01*
X51904761Y-61266666D01*
X51828571Y-61304761D01*
X51790476Y-61342857D01*
X51752380Y-61419047D01*
X51752380Y-61609523D01*
X51790476Y-61685714D01*
X51828571Y-61723809D01*
X51904761Y-61761904D01*
X52133333Y-61761904D01*
X52209523Y-61723809D01*
X52247619Y-61685714D01*
X51485714Y-60961904D02*
X50952380Y-60961904D01*
X51295238Y-61761904D01*
X56514285Y-61685714D02*
X56552380Y-61723809D01*
X56666666Y-61761904D01*
X56742857Y-61761904D01*
X56857142Y-61723809D01*
X56933333Y-61647619D01*
X56971428Y-61571428D01*
X57009523Y-61419047D01*
X57009523Y-61304761D01*
X56971428Y-61152380D01*
X56933333Y-61076190D01*
X56857142Y-61000000D01*
X56742857Y-60961904D01*
X56666666Y-60961904D01*
X56552380Y-61000000D01*
X56514285Y-61038095D01*
X56247619Y-60961904D02*
X55752380Y-60961904D01*
X56019047Y-61266666D01*
X55904761Y-61266666D01*
X55828571Y-61304761D01*
X55790476Y-61342857D01*
X55752380Y-61419047D01*
X55752380Y-61609523D01*
X55790476Y-61685714D01*
X55828571Y-61723809D01*
X55904761Y-61761904D01*
X56133333Y-61761904D01*
X56209523Y-61723809D01*
X56247619Y-61685714D01*
X55066666Y-60961904D02*
X55219047Y-60961904D01*
X55295238Y-61000000D01*
X55333333Y-61038095D01*
X55409523Y-61152380D01*
X55447619Y-61304761D01*
X55447619Y-61609523D01*
X55409523Y-61685714D01*
X55371428Y-61723809D01*
X55295238Y-61761904D01*
X55142857Y-61761904D01*
X55066666Y-61723809D01*
X55028571Y-61685714D01*
X54990476Y-61609523D01*
X54990476Y-61419047D01*
X55028571Y-61342857D01*
X55066666Y-61304761D01*
X55142857Y-61266666D01*
X55295238Y-61266666D01*
X55371428Y-61304761D01*
X55409523Y-61342857D01*
X55447619Y-61419047D01*
X69814285Y-27685714D02*
X69852380Y-27723809D01*
X69966666Y-27761904D01*
X70042857Y-27761904D01*
X70157142Y-27723809D01*
X70233333Y-27647619D01*
X70271428Y-27571428D01*
X70309523Y-27419047D01*
X70309523Y-27304761D01*
X70271428Y-27152380D01*
X70233333Y-27076190D01*
X70157142Y-27000000D01*
X70042857Y-26961904D01*
X69966666Y-26961904D01*
X69852380Y-27000000D01*
X69814285Y-27038095D01*
X69547619Y-26961904D02*
X69052380Y-26961904D01*
X69319047Y-27266666D01*
X69204761Y-27266666D01*
X69128571Y-27304761D01*
X69090476Y-27342857D01*
X69052380Y-27419047D01*
X69052380Y-27609523D01*
X69090476Y-27685714D01*
X69128571Y-27723809D01*
X69204761Y-27761904D01*
X69433333Y-27761904D01*
X69509523Y-27723809D01*
X69547619Y-27685714D01*
X68328571Y-26961904D02*
X68709523Y-26961904D01*
X68747619Y-27342857D01*
X68709523Y-27304761D01*
X68633333Y-27266666D01*
X68442857Y-27266666D01*
X68366666Y-27304761D01*
X68328571Y-27342857D01*
X68290476Y-27419047D01*
X68290476Y-27609523D01*
X68328571Y-27685714D01*
X68366666Y-27723809D01*
X68442857Y-27761904D01*
X68633333Y-27761904D01*
X68709523Y-27723809D01*
X68747619Y-27685714D01*
X69814285Y-22285714D02*
X69852380Y-22323809D01*
X69966666Y-22361904D01*
X70042857Y-22361904D01*
X70157142Y-22323809D01*
X70233333Y-22247619D01*
X70271428Y-22171428D01*
X70309523Y-22019047D01*
X70309523Y-21904761D01*
X70271428Y-21752380D01*
X70233333Y-21676190D01*
X70157142Y-21600000D01*
X70042857Y-21561904D01*
X69966666Y-21561904D01*
X69852380Y-21600000D01*
X69814285Y-21638095D01*
X69547619Y-21561904D02*
X69052380Y-21561904D01*
X69319047Y-21866666D01*
X69204761Y-21866666D01*
X69128571Y-21904761D01*
X69090476Y-21942857D01*
X69052380Y-22019047D01*
X69052380Y-22209523D01*
X69090476Y-22285714D01*
X69128571Y-22323809D01*
X69204761Y-22361904D01*
X69433333Y-22361904D01*
X69509523Y-22323809D01*
X69547619Y-22285714D01*
X68366666Y-21828571D02*
X68366666Y-22361904D01*
X68557142Y-21523809D02*
X68747619Y-22095238D01*
X68252380Y-22095238D01*
X61514285Y-73285714D02*
X61552380Y-73323809D01*
X61666666Y-73361904D01*
X61742857Y-73361904D01*
X61857142Y-73323809D01*
X61933333Y-73247619D01*
X61971428Y-73171428D01*
X62009523Y-73019047D01*
X62009523Y-72904761D01*
X61971428Y-72752380D01*
X61933333Y-72676190D01*
X61857142Y-72600000D01*
X61742857Y-72561904D01*
X61666666Y-72561904D01*
X61552380Y-72600000D01*
X61514285Y-72638095D01*
X61247619Y-72561904D02*
X60752380Y-72561904D01*
X61019047Y-72866666D01*
X60904761Y-72866666D01*
X60828571Y-72904761D01*
X60790476Y-72942857D01*
X60752380Y-73019047D01*
X60752380Y-73209523D01*
X60790476Y-73285714D01*
X60828571Y-73323809D01*
X60904761Y-73361904D01*
X61133333Y-73361904D01*
X61209523Y-73323809D01*
X61247619Y-73285714D01*
X60485714Y-72561904D02*
X59990476Y-72561904D01*
X60257142Y-72866666D01*
X60142857Y-72866666D01*
X60066666Y-72904761D01*
X60028571Y-72942857D01*
X59990476Y-73019047D01*
X59990476Y-73209523D01*
X60028571Y-73285714D01*
X60066666Y-73323809D01*
X60142857Y-73361904D01*
X60371428Y-73361904D01*
X60447619Y-73323809D01*
X60485714Y-73285714D01*
X61514285Y-78685714D02*
X61552380Y-78723809D01*
X61666666Y-78761904D01*
X61742857Y-78761904D01*
X61857142Y-78723809D01*
X61933333Y-78647619D01*
X61971428Y-78571428D01*
X62009523Y-78419047D01*
X62009523Y-78304761D01*
X61971428Y-78152380D01*
X61933333Y-78076190D01*
X61857142Y-78000000D01*
X61742857Y-77961904D01*
X61666666Y-77961904D01*
X61552380Y-78000000D01*
X61514285Y-78038095D01*
X61247619Y-77961904D02*
X60752380Y-77961904D01*
X61019047Y-78266666D01*
X60904761Y-78266666D01*
X60828571Y-78304761D01*
X60790476Y-78342857D01*
X60752380Y-78419047D01*
X60752380Y-78609523D01*
X60790476Y-78685714D01*
X60828571Y-78723809D01*
X60904761Y-78761904D01*
X61133333Y-78761904D01*
X61209523Y-78723809D01*
X61247619Y-78685714D01*
X60447619Y-78038095D02*
X60409523Y-78000000D01*
X60333333Y-77961904D01*
X60142857Y-77961904D01*
X60066666Y-78000000D01*
X60028571Y-78038095D01*
X59990476Y-78114285D01*
X59990476Y-78190476D01*
X60028571Y-78304761D01*
X60485714Y-78761904D01*
X59990476Y-78761904D01*
X65285714Y-31685714D02*
X65323809Y-31647619D01*
X65361904Y-31533333D01*
X65361904Y-31457142D01*
X65323809Y-31342857D01*
X65247619Y-31266666D01*
X65171428Y-31228571D01*
X65019047Y-31190476D01*
X64904761Y-31190476D01*
X64752380Y-31228571D01*
X64676190Y-31266666D01*
X64600000Y-31342857D01*
X64561904Y-31457142D01*
X64561904Y-31533333D01*
X64600000Y-31647619D01*
X64638095Y-31685714D01*
X64561904Y-31952380D02*
X64561904Y-32447619D01*
X64866666Y-32180952D01*
X64866666Y-32295238D01*
X64904761Y-32371428D01*
X64942857Y-32409523D01*
X65019047Y-32447619D01*
X65209523Y-32447619D01*
X65285714Y-32409523D01*
X65323809Y-32371428D01*
X65361904Y-32295238D01*
X65361904Y-32066666D01*
X65323809Y-31990476D01*
X65285714Y-31952380D01*
X65361904Y-33209523D02*
X65361904Y-32752380D01*
X65361904Y-32980952D02*
X64561904Y-32980952D01*
X64676190Y-32904761D01*
X64752380Y-32828571D01*
X64790476Y-32752380D01*
X65585714Y-66585714D02*
X65623809Y-66547619D01*
X65661904Y-66433333D01*
X65661904Y-66357142D01*
X65623809Y-66242857D01*
X65547619Y-66166666D01*
X65471428Y-66128571D01*
X65319047Y-66090476D01*
X65204761Y-66090476D01*
X65052380Y-66128571D01*
X64976190Y-66166666D01*
X64900000Y-66242857D01*
X64861904Y-66357142D01*
X64861904Y-66433333D01*
X64900000Y-66547619D01*
X64938095Y-66585714D01*
X64938095Y-66890476D02*
X64900000Y-66928571D01*
X64861904Y-67004761D01*
X64861904Y-67195238D01*
X64900000Y-67271428D01*
X64938095Y-67309523D01*
X65014285Y-67347619D01*
X65090476Y-67347619D01*
X65204761Y-67309523D01*
X65661904Y-66852380D01*
X65661904Y-67347619D01*
X65661904Y-67728571D02*
X65661904Y-67880952D01*
X65623809Y-67957142D01*
X65585714Y-67995238D01*
X65471428Y-68071428D01*
X65319047Y-68109523D01*
X65014285Y-68109523D01*
X64938095Y-68071428D01*
X64900000Y-68033333D01*
X64861904Y-67957142D01*
X64861904Y-67804761D01*
X64900000Y-67728571D01*
X64938095Y-67690476D01*
X65014285Y-67652380D01*
X65204761Y-67652380D01*
X65280952Y-67690476D01*
X65319047Y-67728571D01*
X65357142Y-67804761D01*
X65357142Y-67957142D01*
X65319047Y-68033333D01*
X65280952Y-68071428D01*
X65204761Y-68109523D01*
X65585714Y-82285714D02*
X65623809Y-82247619D01*
X65661904Y-82133333D01*
X65661904Y-82057142D01*
X65623809Y-81942857D01*
X65547619Y-81866666D01*
X65471428Y-81828571D01*
X65319047Y-81790476D01*
X65204761Y-81790476D01*
X65052380Y-81828571D01*
X64976190Y-81866666D01*
X64900000Y-81942857D01*
X64861904Y-82057142D01*
X64861904Y-82133333D01*
X64900000Y-82247619D01*
X64938095Y-82285714D01*
X64938095Y-82590476D02*
X64900000Y-82628571D01*
X64861904Y-82704761D01*
X64861904Y-82895238D01*
X64900000Y-82971428D01*
X64938095Y-83009523D01*
X65014285Y-83047619D01*
X65090476Y-83047619D01*
X65204761Y-83009523D01*
X65661904Y-82552380D01*
X65661904Y-83047619D01*
X65204761Y-83504761D02*
X65166666Y-83428571D01*
X65128571Y-83390476D01*
X65052380Y-83352380D01*
X65014285Y-83352380D01*
X64938095Y-83390476D01*
X64900000Y-83428571D01*
X64861904Y-83504761D01*
X64861904Y-83657142D01*
X64900000Y-83733333D01*
X64938095Y-83771428D01*
X65014285Y-83809523D01*
X65052380Y-83809523D01*
X65128571Y-83771428D01*
X65166666Y-83733333D01*
X65204761Y-83657142D01*
X65204761Y-83504761D01*
X65242857Y-83428571D01*
X65280952Y-83390476D01*
X65357142Y-83352380D01*
X65509523Y-83352380D01*
X65585714Y-83390476D01*
X65623809Y-83428571D01*
X65661904Y-83504761D01*
X65661904Y-83657142D01*
X65623809Y-83733333D01*
X65585714Y-83771428D01*
X65509523Y-83809523D01*
X65357142Y-83809523D01*
X65280952Y-83771428D01*
X65242857Y-83733333D01*
X65204761Y-83657142D01*
X77285714Y-29985714D02*
X77323809Y-29947619D01*
X77361904Y-29833333D01*
X77361904Y-29757142D01*
X77323809Y-29642857D01*
X77247619Y-29566666D01*
X77171428Y-29528571D01*
X77019047Y-29490476D01*
X76904761Y-29490476D01*
X76752380Y-29528571D01*
X76676190Y-29566666D01*
X76600000Y-29642857D01*
X76561904Y-29757142D01*
X76561904Y-29833333D01*
X76600000Y-29947619D01*
X76638095Y-29985714D01*
X76638095Y-30290476D02*
X76600000Y-30328571D01*
X76561904Y-30404761D01*
X76561904Y-30595238D01*
X76600000Y-30671428D01*
X76638095Y-30709523D01*
X76714285Y-30747619D01*
X76790476Y-30747619D01*
X76904761Y-30709523D01*
X77361904Y-30252380D01*
X77361904Y-30747619D01*
X76561904Y-31014285D02*
X76561904Y-31547619D01*
X77361904Y-31204761D01*
X77285714Y-37985714D02*
X77323809Y-37947619D01*
X77361904Y-37833333D01*
X77361904Y-37757142D01*
X77323809Y-37642857D01*
X77247619Y-37566666D01*
X77171428Y-37528571D01*
X77019047Y-37490476D01*
X76904761Y-37490476D01*
X76752380Y-37528571D01*
X76676190Y-37566666D01*
X76600000Y-37642857D01*
X76561904Y-37757142D01*
X76561904Y-37833333D01*
X76600000Y-37947619D01*
X76638095Y-37985714D01*
X76638095Y-38290476D02*
X76600000Y-38328571D01*
X76561904Y-38404761D01*
X76561904Y-38595238D01*
X76600000Y-38671428D01*
X76638095Y-38709523D01*
X76714285Y-38747619D01*
X76790476Y-38747619D01*
X76904761Y-38709523D01*
X77361904Y-38252380D01*
X77361904Y-38747619D01*
X76561904Y-39471428D02*
X76561904Y-39090476D01*
X76942857Y-39052380D01*
X76904761Y-39090476D01*
X76866666Y-39166666D01*
X76866666Y-39357142D01*
X76904761Y-39433333D01*
X76942857Y-39471428D01*
X77019047Y-39509523D01*
X77209523Y-39509523D01*
X77285714Y-39471428D01*
X77323809Y-39433333D01*
X77361904Y-39357142D01*
X77361904Y-39166666D01*
X77323809Y-39090476D01*
X77285714Y-39052380D01*
X78585714Y-63485714D02*
X78623809Y-63447619D01*
X78661904Y-63333333D01*
X78661904Y-63257142D01*
X78623809Y-63142857D01*
X78547619Y-63066666D01*
X78471428Y-63028571D01*
X78319047Y-62990476D01*
X78204761Y-62990476D01*
X78052380Y-63028571D01*
X77976190Y-63066666D01*
X77900000Y-63142857D01*
X77861904Y-63257142D01*
X77861904Y-63333333D01*
X77900000Y-63447619D01*
X77938095Y-63485714D01*
X77938095Y-63790476D02*
X77900000Y-63828571D01*
X77861904Y-63904761D01*
X77861904Y-64095238D01*
X77900000Y-64171428D01*
X77938095Y-64209523D01*
X78014285Y-64247619D01*
X78090476Y-64247619D01*
X78204761Y-64209523D01*
X78661904Y-63752380D01*
X78661904Y-64247619D01*
X78128571Y-64933333D02*
X78661904Y-64933333D01*
X77823809Y-64742857D02*
X78395238Y-64552380D01*
X78395238Y-65047619D01*
X68114285Y-46285714D02*
X68152380Y-46323809D01*
X68266666Y-46361904D01*
X68342857Y-46361904D01*
X68457142Y-46323809D01*
X68533333Y-46247619D01*
X68571428Y-46171428D01*
X68609523Y-46019047D01*
X68609523Y-45904761D01*
X68571428Y-45752380D01*
X68533333Y-45676190D01*
X68457142Y-45600000D01*
X68342857Y-45561904D01*
X68266666Y-45561904D01*
X68152380Y-45600000D01*
X68114285Y-45638095D01*
X67809523Y-45638095D02*
X67771428Y-45600000D01*
X67695238Y-45561904D01*
X67504761Y-45561904D01*
X67428571Y-45600000D01*
X67390476Y-45638095D01*
X67352380Y-45714285D01*
X67352380Y-45790476D01*
X67390476Y-45904761D01*
X67847619Y-46361904D01*
X67352380Y-46361904D01*
X66590476Y-46361904D02*
X67047619Y-46361904D01*
X66819047Y-46361904D02*
X66819047Y-45561904D01*
X66895238Y-45676190D01*
X66971428Y-45752380D01*
X67047619Y-45790476D01*
X73285714Y-49185714D02*
X73323809Y-49147619D01*
X73361904Y-49033333D01*
X73361904Y-48957142D01*
X73323809Y-48842857D01*
X73247619Y-48766666D01*
X73171428Y-48728571D01*
X73019047Y-48690476D01*
X72904761Y-48690476D01*
X72752380Y-48728571D01*
X72676190Y-48766666D01*
X72600000Y-48842857D01*
X72561904Y-48957142D01*
X72561904Y-49033333D01*
X72600000Y-49147619D01*
X72638095Y-49185714D01*
X72638095Y-49490476D02*
X72600000Y-49528571D01*
X72561904Y-49604761D01*
X72561904Y-49795238D01*
X72600000Y-49871428D01*
X72638095Y-49909523D01*
X72714285Y-49947619D01*
X72790476Y-49947619D01*
X72904761Y-49909523D01*
X73361904Y-49452380D01*
X73361904Y-49947619D01*
X72561904Y-50442857D02*
X72561904Y-50519047D01*
X72600000Y-50595238D01*
X72638095Y-50633333D01*
X72714285Y-50671428D01*
X72866666Y-50709523D01*
X73057142Y-50709523D01*
X73209523Y-50671428D01*
X73285714Y-50633333D01*
X73323809Y-50595238D01*
X73361904Y-50519047D01*
X73361904Y-50442857D01*
X73323809Y-50366666D01*
X73285714Y-50328571D01*
X73209523Y-50290476D01*
X73057142Y-50252380D01*
X72866666Y-50252380D01*
X72714285Y-50290476D01*
X72638095Y-50328571D01*
X72600000Y-50366666D01*
X72561904Y-50442857D01*
X68114285Y-54385714D02*
X68152380Y-54423809D01*
X68266666Y-54461904D01*
X68342857Y-54461904D01*
X68457142Y-54423809D01*
X68533333Y-54347619D01*
X68571428Y-54271428D01*
X68609523Y-54119047D01*
X68609523Y-54004761D01*
X68571428Y-53852380D01*
X68533333Y-53776190D01*
X68457142Y-53700000D01*
X68342857Y-53661904D01*
X68266666Y-53661904D01*
X68152380Y-53700000D01*
X68114285Y-53738095D01*
X67352380Y-54461904D02*
X67809523Y-54461904D01*
X67580952Y-54461904D02*
X67580952Y-53661904D01*
X67657142Y-53776190D01*
X67733333Y-53852380D01*
X67809523Y-53890476D01*
X66971428Y-54461904D02*
X66819047Y-54461904D01*
X66742857Y-54423809D01*
X66704761Y-54385714D01*
X66628571Y-54271428D01*
X66590476Y-54119047D01*
X66590476Y-53814285D01*
X66628571Y-53738095D01*
X66666666Y-53700000D01*
X66742857Y-53661904D01*
X66895238Y-53661904D01*
X66971428Y-53700000D01*
X67009523Y-53738095D01*
X67047619Y-53814285D01*
X67047619Y-54004761D01*
X67009523Y-54080952D01*
X66971428Y-54119047D01*
X66895238Y-54157142D01*
X66742857Y-54157142D01*
X66666666Y-54119047D01*
X66628571Y-54080952D01*
X66590476Y-54004761D01*
X49833333Y-27161904D02*
X50100000Y-26780952D01*
X50290476Y-27161904D02*
X50290476Y-26361904D01*
X49985714Y-26361904D01*
X49909523Y-26400000D01*
X49871428Y-26438095D01*
X49833333Y-26514285D01*
X49833333Y-26628571D01*
X49871428Y-26704761D01*
X49909523Y-26742857D01*
X49985714Y-26780952D01*
X50290476Y-26780952D01*
X49109523Y-26361904D02*
X49490476Y-26361904D01*
X49528571Y-26742857D01*
X49490476Y-26704761D01*
X49414285Y-26666666D01*
X49223809Y-26666666D01*
X49147619Y-26704761D01*
X49109523Y-26742857D01*
X49071428Y-26819047D01*
X49071428Y-27009523D01*
X49109523Y-27085714D01*
X49147619Y-27123809D01*
X49223809Y-27161904D01*
X49414285Y-27161904D01*
X49490476Y-27123809D01*
X49528571Y-27085714D01*
X49133333Y-30261904D02*
X49400000Y-29880952D01*
X49590476Y-30261904D02*
X49590476Y-29461904D01*
X49285714Y-29461904D01*
X49209523Y-29500000D01*
X49171428Y-29538095D01*
X49133333Y-29614285D01*
X49133333Y-29728571D01*
X49171428Y-29804761D01*
X49209523Y-29842857D01*
X49285714Y-29880952D01*
X49590476Y-29880952D01*
X48752380Y-30261904D02*
X48600000Y-30261904D01*
X48523809Y-30223809D01*
X48485714Y-30185714D01*
X48409523Y-30071428D01*
X48371428Y-29919047D01*
X48371428Y-29614285D01*
X48409523Y-29538095D01*
X48447619Y-29500000D01*
X48523809Y-29461904D01*
X48676190Y-29461904D01*
X48752380Y-29500000D01*
X48790476Y-29538095D01*
X48828571Y-29614285D01*
X48828571Y-29804761D01*
X48790476Y-29880952D01*
X48752380Y-29919047D01*
X48676190Y-29957142D01*
X48523809Y-29957142D01*
X48447619Y-29919047D01*
X48409523Y-29880952D01*
X48371428Y-29804761D01*
X45780952Y-55161904D02*
X45780952Y-54361904D01*
X44942857Y-55085714D02*
X44980952Y-55123809D01*
X45095238Y-55161904D01*
X45171428Y-55161904D01*
X45285714Y-55123809D01*
X45361904Y-55047619D01*
X45400000Y-54971428D01*
X45438095Y-54819047D01*
X45438095Y-54704761D01*
X45400000Y-54552380D01*
X45361904Y-54476190D01*
X45285714Y-54400000D01*
X45171428Y-54361904D01*
X45095238Y-54361904D01*
X44980952Y-54400000D01*
X44942857Y-54438095D01*
X44676190Y-54361904D02*
X44180952Y-54361904D01*
X44447619Y-54666666D01*
X44333333Y-54666666D01*
X44257142Y-54704761D01*
X44219047Y-54742857D01*
X44180952Y-54819047D01*
X44180952Y-55009523D01*
X44219047Y-55085714D01*
X44257142Y-55123809D01*
X44333333Y-55161904D01*
X44561904Y-55161904D01*
X44638095Y-55123809D01*
X44676190Y-55085714D01*
X24185714Y-17866666D02*
X24223809Y-17828571D01*
X24261904Y-17714285D01*
X24261904Y-17638095D01*
X24223809Y-17523809D01*
X24147619Y-17447619D01*
X24071428Y-17409523D01*
X23919047Y-17371428D01*
X23804761Y-17371428D01*
X23652380Y-17409523D01*
X23576190Y-17447619D01*
X23500000Y-17523809D01*
X23461904Y-17638095D01*
X23461904Y-17714285D01*
X23500000Y-17828571D01*
X23538095Y-17866666D01*
X24261904Y-18628571D02*
X24261904Y-18171428D01*
X24261904Y-18400000D02*
X23461904Y-18400000D01*
X23576190Y-18323809D01*
X23652380Y-18247619D01*
X23690476Y-18171428D01*
X25785714Y-17866666D02*
X25823809Y-17828571D01*
X25861904Y-17714285D01*
X25861904Y-17638095D01*
X25823809Y-17523809D01*
X25747619Y-17447619D01*
X25671428Y-17409523D01*
X25519047Y-17371428D01*
X25404761Y-17371428D01*
X25252380Y-17409523D01*
X25176190Y-17447619D01*
X25100000Y-17523809D01*
X25061904Y-17638095D01*
X25061904Y-17714285D01*
X25100000Y-17828571D01*
X25138095Y-17866666D01*
X25138095Y-18171428D02*
X25100000Y-18209523D01*
X25061904Y-18285714D01*
X25061904Y-18476190D01*
X25100000Y-18552380D01*
X25138095Y-18590476D01*
X25214285Y-18628571D01*
X25290476Y-18628571D01*
X25404761Y-18590476D01*
X25861904Y-18133333D01*
X25861904Y-18628571D01*
X84685714Y-55966666D02*
X84723809Y-55928571D01*
X84761904Y-55814285D01*
X84761904Y-55738095D01*
X84723809Y-55623809D01*
X84647619Y-55547619D01*
X84571428Y-55509523D01*
X84419047Y-55471428D01*
X84304761Y-55471428D01*
X84152380Y-55509523D01*
X84076190Y-55547619D01*
X84000000Y-55623809D01*
X83961904Y-55738095D01*
X83961904Y-55814285D01*
X84000000Y-55928571D01*
X84038095Y-55966666D01*
X83961904Y-56233333D02*
X83961904Y-56728571D01*
X84266666Y-56461904D01*
X84266666Y-56576190D01*
X84304761Y-56652380D01*
X84342857Y-56690476D01*
X84419047Y-56728571D01*
X84609523Y-56728571D01*
X84685714Y-56690476D01*
X84723809Y-56652380D01*
X84761904Y-56576190D01*
X84761904Y-56347619D01*
X84723809Y-56271428D01*
X84685714Y-56233333D01*
X16185714Y-17766666D02*
X16223809Y-17728571D01*
X16261904Y-17614285D01*
X16261904Y-17538095D01*
X16223809Y-17423809D01*
X16147619Y-17347619D01*
X16071428Y-17309523D01*
X15919047Y-17271428D01*
X15804761Y-17271428D01*
X15652380Y-17309523D01*
X15576190Y-17347619D01*
X15500000Y-17423809D01*
X15461904Y-17538095D01*
X15461904Y-17614285D01*
X15500000Y-17728571D01*
X15538095Y-17766666D01*
X15728571Y-18452380D02*
X16261904Y-18452380D01*
X15423809Y-18261904D02*
X15995238Y-18071428D01*
X15995238Y-18566666D01*
X86285714Y-55966666D02*
X86323809Y-55928571D01*
X86361904Y-55814285D01*
X86361904Y-55738095D01*
X86323809Y-55623809D01*
X86247619Y-55547619D01*
X86171428Y-55509523D01*
X86019047Y-55471428D01*
X85904761Y-55471428D01*
X85752380Y-55509523D01*
X85676190Y-55547619D01*
X85600000Y-55623809D01*
X85561904Y-55738095D01*
X85561904Y-55814285D01*
X85600000Y-55928571D01*
X85638095Y-55966666D01*
X85561904Y-56690476D02*
X85561904Y-56309523D01*
X85942857Y-56271428D01*
X85904761Y-56309523D01*
X85866666Y-56385714D01*
X85866666Y-56576190D01*
X85904761Y-56652380D01*
X85942857Y-56690476D01*
X86019047Y-56728571D01*
X86209523Y-56728571D01*
X86285714Y-56690476D01*
X86323809Y-56652380D01*
X86361904Y-56576190D01*
X86361904Y-56385714D01*
X86323809Y-56309523D01*
X86285714Y-56271428D01*
X17795714Y-17766666D02*
X17833809Y-17728571D01*
X17871904Y-17614285D01*
X17871904Y-17538095D01*
X17833809Y-17423809D01*
X17757619Y-17347619D01*
X17681428Y-17309523D01*
X17529047Y-17271428D01*
X17414761Y-17271428D01*
X17262380Y-17309523D01*
X17186190Y-17347619D01*
X17110000Y-17423809D01*
X17071904Y-17538095D01*
X17071904Y-17614285D01*
X17110000Y-17728571D01*
X17148095Y-17766666D01*
X17071904Y-18452380D02*
X17071904Y-18300000D01*
X17110000Y-18223809D01*
X17148095Y-18185714D01*
X17262380Y-18109523D01*
X17414761Y-18071428D01*
X17719523Y-18071428D01*
X17795714Y-18109523D01*
X17833809Y-18147619D01*
X17871904Y-18223809D01*
X17871904Y-18376190D01*
X17833809Y-18452380D01*
X17795714Y-18490476D01*
X17719523Y-18528571D01*
X17529047Y-18528571D01*
X17452857Y-18490476D01*
X17414761Y-18452380D01*
X17376666Y-18376190D01*
X17376666Y-18223809D01*
X17414761Y-18147619D01*
X17452857Y-18109523D01*
X17529047Y-18071428D01*
X37883333Y-48585714D02*
X37921428Y-48623809D01*
X38035714Y-48661904D01*
X38111904Y-48661904D01*
X38226190Y-48623809D01*
X38302380Y-48547619D01*
X38340476Y-48471428D01*
X38378571Y-48319047D01*
X38378571Y-48204761D01*
X38340476Y-48052380D01*
X38302380Y-47976190D01*
X38226190Y-47900000D01*
X38111904Y-47861904D01*
X38035714Y-47861904D01*
X37921428Y-47900000D01*
X37883333Y-47938095D01*
X37616666Y-47861904D02*
X37083333Y-47861904D01*
X37426190Y-48661904D01*
X17785714Y-25466666D02*
X17823809Y-25428571D01*
X17861904Y-25314285D01*
X17861904Y-25238095D01*
X17823809Y-25123809D01*
X17747619Y-25047619D01*
X17671428Y-25009523D01*
X17519047Y-24971428D01*
X17404761Y-24971428D01*
X17252380Y-25009523D01*
X17176190Y-25047619D01*
X17100000Y-25123809D01*
X17061904Y-25238095D01*
X17061904Y-25314285D01*
X17100000Y-25428571D01*
X17138095Y-25466666D01*
X17861904Y-25847619D02*
X17861904Y-26000000D01*
X17823809Y-26076190D01*
X17785714Y-26114285D01*
X17671428Y-26190476D01*
X17519047Y-26228571D01*
X17214285Y-26228571D01*
X17138095Y-26190476D01*
X17100000Y-26152380D01*
X17061904Y-26076190D01*
X17061904Y-25923809D01*
X17100000Y-25847619D01*
X17138095Y-25809523D01*
X17214285Y-25771428D01*
X17404761Y-25771428D01*
X17480952Y-25809523D01*
X17519047Y-25847619D01*
X17557142Y-25923809D01*
X17557142Y-26076190D01*
X17519047Y-26152380D01*
X17480952Y-26190476D01*
X17404761Y-26228571D01*
X19385714Y-25445714D02*
X19423809Y-25407619D01*
X19461904Y-25293333D01*
X19461904Y-25217142D01*
X19423809Y-25102857D01*
X19347619Y-25026666D01*
X19271428Y-24988571D01*
X19119047Y-24950476D01*
X19004761Y-24950476D01*
X18852380Y-24988571D01*
X18776190Y-25026666D01*
X18700000Y-25102857D01*
X18661904Y-25217142D01*
X18661904Y-25293333D01*
X18700000Y-25407619D01*
X18738095Y-25445714D01*
X19461904Y-26207619D02*
X19461904Y-25750476D01*
X19461904Y-25979047D02*
X18661904Y-25979047D01*
X18776190Y-25902857D01*
X18852380Y-25826666D01*
X18890476Y-25750476D01*
X18661904Y-26702857D02*
X18661904Y-26779047D01*
X18700000Y-26855238D01*
X18738095Y-26893333D01*
X18814285Y-26931428D01*
X18966666Y-26969523D01*
X19157142Y-26969523D01*
X19309523Y-26931428D01*
X19385714Y-26893333D01*
X19423809Y-26855238D01*
X19461904Y-26779047D01*
X19461904Y-26702857D01*
X19423809Y-26626666D01*
X19385714Y-26588571D01*
X19309523Y-26550476D01*
X19157142Y-26512380D01*
X18966666Y-26512380D01*
X18814285Y-26550476D01*
X18738095Y-26588571D01*
X18700000Y-26626666D01*
X18661904Y-26702857D01*
X41614285Y-15785714D02*
X41652380Y-15823809D01*
X41766666Y-15861904D01*
X41842857Y-15861904D01*
X41957142Y-15823809D01*
X42033333Y-15747619D01*
X42071428Y-15671428D01*
X42109523Y-15519047D01*
X42109523Y-15404761D01*
X42071428Y-15252380D01*
X42033333Y-15176190D01*
X41957142Y-15100000D01*
X41842857Y-15061904D01*
X41766666Y-15061904D01*
X41652380Y-15100000D01*
X41614285Y-15138095D01*
X40852380Y-15861904D02*
X41309523Y-15861904D01*
X41080952Y-15861904D02*
X41080952Y-15061904D01*
X41157142Y-15176190D01*
X41233333Y-15252380D01*
X41309523Y-15290476D01*
X40090476Y-15861904D02*
X40547619Y-15861904D01*
X40319047Y-15861904D02*
X40319047Y-15061904D01*
X40395238Y-15176190D01*
X40471428Y-15252380D01*
X40547619Y-15290476D01*
X20135714Y-62485714D02*
X20173809Y-62447619D01*
X20211904Y-62333333D01*
X20211904Y-62257142D01*
X20173809Y-62142857D01*
X20097619Y-62066666D01*
X20021428Y-62028571D01*
X19869047Y-61990476D01*
X19754761Y-61990476D01*
X19602380Y-62028571D01*
X19526190Y-62066666D01*
X19450000Y-62142857D01*
X19411904Y-62257142D01*
X19411904Y-62333333D01*
X19450000Y-62447619D01*
X19488095Y-62485714D01*
X20211904Y-63247619D02*
X20211904Y-62790476D01*
X20211904Y-63019047D02*
X19411904Y-63019047D01*
X19526190Y-62942857D01*
X19602380Y-62866666D01*
X19640476Y-62790476D01*
X19678571Y-63933333D02*
X20211904Y-63933333D01*
X19373809Y-63742857D02*
X19945238Y-63552380D01*
X19945238Y-64047619D01*
X30385714Y-36485714D02*
X30423809Y-36447619D01*
X30461904Y-36333333D01*
X30461904Y-36257142D01*
X30423809Y-36142857D01*
X30347619Y-36066666D01*
X30271428Y-36028571D01*
X30119047Y-35990476D01*
X30004761Y-35990476D01*
X29852380Y-36028571D01*
X29776190Y-36066666D01*
X29700000Y-36142857D01*
X29661904Y-36257142D01*
X29661904Y-36333333D01*
X29700000Y-36447619D01*
X29738095Y-36485714D01*
X30461904Y-37247619D02*
X30461904Y-36790476D01*
X30461904Y-37019047D02*
X29661904Y-37019047D01*
X29776190Y-36942857D01*
X29852380Y-36866666D01*
X29890476Y-36790476D01*
X29661904Y-37971428D02*
X29661904Y-37590476D01*
X30042857Y-37552380D01*
X30004761Y-37590476D01*
X29966666Y-37666666D01*
X29966666Y-37857142D01*
X30004761Y-37933333D01*
X30042857Y-37971428D01*
X30119047Y-38009523D01*
X30309523Y-38009523D01*
X30385714Y-37971428D01*
X30423809Y-37933333D01*
X30461904Y-37857142D01*
X30461904Y-37666666D01*
X30423809Y-37590476D01*
X30385714Y-37552380D01*
X37914285Y-46985714D02*
X37952380Y-47023809D01*
X38066666Y-47061904D01*
X38142857Y-47061904D01*
X38257142Y-47023809D01*
X38333333Y-46947619D01*
X38371428Y-46871428D01*
X38409523Y-46719047D01*
X38409523Y-46604761D01*
X38371428Y-46452380D01*
X38333333Y-46376190D01*
X38257142Y-46300000D01*
X38142857Y-46261904D01*
X38066666Y-46261904D01*
X37952380Y-46300000D01*
X37914285Y-46338095D01*
X37152380Y-47061904D02*
X37609523Y-47061904D01*
X37380952Y-47061904D02*
X37380952Y-46261904D01*
X37457142Y-46376190D01*
X37533333Y-46452380D01*
X37609523Y-46490476D01*
X36466666Y-46261904D02*
X36619047Y-46261904D01*
X36695238Y-46300000D01*
X36733333Y-46338095D01*
X36809523Y-46452380D01*
X36847619Y-46604761D01*
X36847619Y-46909523D01*
X36809523Y-46985714D01*
X36771428Y-47023809D01*
X36695238Y-47061904D01*
X36542857Y-47061904D01*
X36466666Y-47023809D01*
X36428571Y-46985714D01*
X36390476Y-46909523D01*
X36390476Y-46719047D01*
X36428571Y-46642857D01*
X36466666Y-46604761D01*
X36542857Y-46566666D01*
X36695238Y-46566666D01*
X36771428Y-46604761D01*
X36809523Y-46642857D01*
X36847619Y-46719047D01*
X21490952Y-17701904D02*
X21490952Y-16901904D01*
X20652857Y-17625714D02*
X20690952Y-17663809D01*
X20805238Y-17701904D01*
X20881428Y-17701904D01*
X20995714Y-17663809D01*
X21071904Y-17587619D01*
X21110000Y-17511428D01*
X21148095Y-17359047D01*
X21148095Y-17244761D01*
X21110000Y-17092380D01*
X21071904Y-17016190D01*
X20995714Y-16940000D01*
X20881428Y-16901904D01*
X20805238Y-16901904D01*
X20690952Y-16940000D01*
X20652857Y-16978095D01*
X20348095Y-16978095D02*
X20310000Y-16940000D01*
X20233809Y-16901904D01*
X20043333Y-16901904D01*
X19967142Y-16940000D01*
X19929047Y-16978095D01*
X19890952Y-17054285D01*
X19890952Y-17130476D01*
X19929047Y-17244761D01*
X20386190Y-17701904D01*
X19890952Y-17701904D01*
X42576190Y-25838095D02*
X42652380Y-25800000D01*
X42728571Y-25723809D01*
X42842857Y-25609523D01*
X42919047Y-25571428D01*
X42995238Y-25571428D01*
X42957142Y-25761904D02*
X43033333Y-25723809D01*
X43109523Y-25647619D01*
X43147619Y-25495238D01*
X43147619Y-25228571D01*
X43109523Y-25076190D01*
X43033333Y-25000000D01*
X42957142Y-24961904D01*
X42804761Y-24961904D01*
X42728571Y-25000000D01*
X42652380Y-25076190D01*
X42614285Y-25228571D01*
X42614285Y-25495238D01*
X42652380Y-25647619D01*
X42728571Y-25723809D01*
X42804761Y-25761904D01*
X42957142Y-25761904D01*
X41852380Y-25761904D02*
X42309523Y-25761904D01*
X42080952Y-25761904D02*
X42080952Y-24961904D01*
X42157142Y-25076190D01*
X42233333Y-25152380D01*
X42309523Y-25190476D01*
X27461904Y-17866666D02*
X27080952Y-17600000D01*
X27461904Y-17409523D02*
X26661904Y-17409523D01*
X26661904Y-17714285D01*
X26700000Y-17790476D01*
X26738095Y-17828571D01*
X26814285Y-17866666D01*
X26928571Y-17866666D01*
X27004761Y-17828571D01*
X27042857Y-17790476D01*
X27080952Y-17714285D01*
X27080952Y-17409523D01*
X27461904Y-18628571D02*
X27461904Y-18171428D01*
X27461904Y-18400000D02*
X26661904Y-18400000D01*
X26776190Y-18323809D01*
X26852380Y-18247619D01*
X26890476Y-18171428D01*
X48033333Y-27161904D02*
X48300000Y-26780952D01*
X48490476Y-27161904D02*
X48490476Y-26361904D01*
X48185714Y-26361904D01*
X48109523Y-26400000D01*
X48071428Y-26438095D01*
X48033333Y-26514285D01*
X48033333Y-26628571D01*
X48071428Y-26704761D01*
X48109523Y-26742857D01*
X48185714Y-26780952D01*
X48490476Y-26780952D01*
X47347619Y-26628571D02*
X47347619Y-27161904D01*
X47538095Y-26323809D02*
X47728571Y-26895238D01*
X47233333Y-26895238D01*
X41763333Y-31851904D02*
X42030000Y-31470952D01*
X42220476Y-31851904D02*
X42220476Y-31051904D01*
X41915714Y-31051904D01*
X41839523Y-31090000D01*
X41801428Y-31128095D01*
X41763333Y-31204285D01*
X41763333Y-31318571D01*
X41801428Y-31394761D01*
X41839523Y-31432857D01*
X41915714Y-31470952D01*
X42220476Y-31470952D01*
X41077619Y-31051904D02*
X41230000Y-31051904D01*
X41306190Y-31090000D01*
X41344285Y-31128095D01*
X41420476Y-31242380D01*
X41458571Y-31394761D01*
X41458571Y-31699523D01*
X41420476Y-31775714D01*
X41382380Y-31813809D01*
X41306190Y-31851904D01*
X41153809Y-31851904D01*
X41077619Y-31813809D01*
X41039523Y-31775714D01*
X41001428Y-31699523D01*
X41001428Y-31509047D01*
X41039523Y-31432857D01*
X41077619Y-31394761D01*
X41153809Y-31356666D01*
X41306190Y-31356666D01*
X41382380Y-31394761D01*
X41420476Y-31432857D01*
X41458571Y-31509047D01*
X49133333Y-31861904D02*
X49400000Y-31480952D01*
X49590476Y-31861904D02*
X49590476Y-31061904D01*
X49285714Y-31061904D01*
X49209523Y-31100000D01*
X49171428Y-31138095D01*
X49133333Y-31214285D01*
X49133333Y-31328571D01*
X49171428Y-31404761D01*
X49209523Y-31442857D01*
X49285714Y-31480952D01*
X49590476Y-31480952D01*
X48866666Y-31061904D02*
X48333333Y-31061904D01*
X48676190Y-31861904D01*
X41743333Y-30261904D02*
X42010000Y-29880952D01*
X42200476Y-30261904D02*
X42200476Y-29461904D01*
X41895714Y-29461904D01*
X41819523Y-29500000D01*
X41781428Y-29538095D01*
X41743333Y-29614285D01*
X41743333Y-29728571D01*
X41781428Y-29804761D01*
X41819523Y-29842857D01*
X41895714Y-29880952D01*
X42200476Y-29880952D01*
X41286190Y-29804761D02*
X41362380Y-29766666D01*
X41400476Y-29728571D01*
X41438571Y-29652380D01*
X41438571Y-29614285D01*
X41400476Y-29538095D01*
X41362380Y-29500000D01*
X41286190Y-29461904D01*
X41133809Y-29461904D01*
X41057619Y-29500000D01*
X41019523Y-29538095D01*
X40981428Y-29614285D01*
X40981428Y-29652380D01*
X41019523Y-29728571D01*
X41057619Y-29766666D01*
X41133809Y-29804761D01*
X41286190Y-29804761D01*
X41362380Y-29842857D01*
X41400476Y-29880952D01*
X41438571Y-29957142D01*
X41438571Y-30109523D01*
X41400476Y-30185714D01*
X41362380Y-30223809D01*
X41286190Y-30261904D01*
X41133809Y-30261904D01*
X41057619Y-30223809D01*
X41019523Y-30185714D01*
X40981428Y-30109523D01*
X40981428Y-29957142D01*
X41019523Y-29880952D01*
X41057619Y-29842857D01*
X41133809Y-29804761D01*
X41734285Y-28671904D02*
X42000952Y-28290952D01*
X42191428Y-28671904D02*
X42191428Y-27871904D01*
X41886666Y-27871904D01*
X41810476Y-27910000D01*
X41772380Y-27948095D01*
X41734285Y-28024285D01*
X41734285Y-28138571D01*
X41772380Y-28214761D01*
X41810476Y-28252857D01*
X41886666Y-28290952D01*
X42191428Y-28290952D01*
X40972380Y-28671904D02*
X41429523Y-28671904D01*
X41200952Y-28671904D02*
X41200952Y-27871904D01*
X41277142Y-27986190D01*
X41353333Y-28062380D01*
X41429523Y-28100476D01*
X40477142Y-27871904D02*
X40400952Y-27871904D01*
X40324761Y-27910000D01*
X40286666Y-27948095D01*
X40248571Y-28024285D01*
X40210476Y-28176666D01*
X40210476Y-28367142D01*
X40248571Y-28519523D01*
X40286666Y-28595714D01*
X40324761Y-28633809D01*
X40400952Y-28671904D01*
X40477142Y-28671904D01*
X40553333Y-28633809D01*
X40591428Y-28595714D01*
X40629523Y-28519523D01*
X40667619Y-28367142D01*
X40667619Y-28176666D01*
X40629523Y-28024285D01*
X40591428Y-27948095D01*
X40553333Y-27910000D01*
X40477142Y-27871904D01*
X49514285Y-28661904D02*
X49780952Y-28280952D01*
X49971428Y-28661904D02*
X49971428Y-27861904D01*
X49666666Y-27861904D01*
X49590476Y-27900000D01*
X49552380Y-27938095D01*
X49514285Y-28014285D01*
X49514285Y-28128571D01*
X49552380Y-28204761D01*
X49590476Y-28242857D01*
X49666666Y-28280952D01*
X49971428Y-28280952D01*
X48752380Y-28661904D02*
X49209523Y-28661904D01*
X48980952Y-28661904D02*
X48980952Y-27861904D01*
X49057142Y-27976190D01*
X49133333Y-28052380D01*
X49209523Y-28090476D01*
X47990476Y-28661904D02*
X48447619Y-28661904D01*
X48219047Y-28661904D02*
X48219047Y-27861904D01*
X48295238Y-27976190D01*
X48371428Y-28052380D01*
X48447619Y-28090476D01*
X37883333Y-50185714D02*
X37921428Y-50223809D01*
X38035714Y-50261904D01*
X38111904Y-50261904D01*
X38226190Y-50223809D01*
X38302380Y-50147619D01*
X38340476Y-50071428D01*
X38378571Y-49919047D01*
X38378571Y-49804761D01*
X38340476Y-49652380D01*
X38302380Y-49576190D01*
X38226190Y-49500000D01*
X38111904Y-49461904D01*
X38035714Y-49461904D01*
X37921428Y-49500000D01*
X37883333Y-49538095D01*
X37426190Y-49804761D02*
X37502380Y-49766666D01*
X37540476Y-49728571D01*
X37578571Y-49652380D01*
X37578571Y-49614285D01*
X37540476Y-49538095D01*
X37502380Y-49500000D01*
X37426190Y-49461904D01*
X37273809Y-49461904D01*
X37197619Y-49500000D01*
X37159523Y-49538095D01*
X37121428Y-49614285D01*
X37121428Y-49652380D01*
X37159523Y-49728571D01*
X37197619Y-49766666D01*
X37273809Y-49804761D01*
X37426190Y-49804761D01*
X37502380Y-49842857D01*
X37540476Y-49880952D01*
X37578571Y-49957142D01*
X37578571Y-50109523D01*
X37540476Y-50185714D01*
X37502380Y-50223809D01*
X37426190Y-50261904D01*
X37273809Y-50261904D01*
X37197619Y-50223809D01*
X37159523Y-50185714D01*
X37121428Y-50109523D01*
X37121428Y-49957142D01*
X37159523Y-49880952D01*
X37197619Y-49842857D01*
X37273809Y-49804761D01*
X4285714Y-55985714D02*
X4323809Y-55947619D01*
X4361904Y-55833333D01*
X4361904Y-55757142D01*
X4323809Y-55642857D01*
X4247619Y-55566666D01*
X4171428Y-55528571D01*
X4019047Y-55490476D01*
X3904761Y-55490476D01*
X3752380Y-55528571D01*
X3676190Y-55566666D01*
X3600000Y-55642857D01*
X3561904Y-55757142D01*
X3561904Y-55833333D01*
X3600000Y-55947619D01*
X3638095Y-55985714D01*
X4361904Y-56747619D02*
X4361904Y-56290476D01*
X4361904Y-56519047D02*
X3561904Y-56519047D01*
X3676190Y-56442857D01*
X3752380Y-56366666D01*
X3790476Y-56290476D01*
X3561904Y-57014285D02*
X3561904Y-57547619D01*
X4361904Y-57204761D01*
X5935714Y-56035714D02*
X5973809Y-55997619D01*
X6011904Y-55883333D01*
X6011904Y-55807142D01*
X5973809Y-55692857D01*
X5897619Y-55616666D01*
X5821428Y-55578571D01*
X5669047Y-55540476D01*
X5554761Y-55540476D01*
X5402380Y-55578571D01*
X5326190Y-55616666D01*
X5250000Y-55692857D01*
X5211904Y-55807142D01*
X5211904Y-55883333D01*
X5250000Y-55997619D01*
X5288095Y-56035714D01*
X6011904Y-56797619D02*
X6011904Y-56340476D01*
X6011904Y-56569047D02*
X5211904Y-56569047D01*
X5326190Y-56492857D01*
X5402380Y-56416666D01*
X5440476Y-56340476D01*
X5554761Y-57254761D02*
X5516666Y-57178571D01*
X5478571Y-57140476D01*
X5402380Y-57102380D01*
X5364285Y-57102380D01*
X5288095Y-57140476D01*
X5250000Y-57178571D01*
X5211904Y-57254761D01*
X5211904Y-57407142D01*
X5250000Y-57483333D01*
X5288095Y-57521428D01*
X5364285Y-57559523D01*
X5402380Y-57559523D01*
X5478571Y-57521428D01*
X5516666Y-57483333D01*
X5554761Y-57407142D01*
X5554761Y-57254761D01*
X5592857Y-57178571D01*
X5630952Y-57140476D01*
X5707142Y-57102380D01*
X5859523Y-57102380D01*
X5935714Y-57140476D01*
X5973809Y-57178571D01*
X6011904Y-57254761D01*
X6011904Y-57407142D01*
X5973809Y-57483333D01*
X5935714Y-57521428D01*
X5859523Y-57559523D01*
X5707142Y-57559523D01*
X5630952Y-57521428D01*
X5592857Y-57483333D01*
X5554761Y-57407142D01*
X15861904Y-26166666D02*
X15861904Y-25785714D01*
X15061904Y-25785714D01*
X15861904Y-26852380D02*
X15861904Y-26395238D01*
X15861904Y-26623809D02*
X15061904Y-26623809D01*
X15176190Y-26547619D01*
X15252380Y-26471428D01*
X15290476Y-26395238D01*
M02*
