G04 #@! TF.GenerationSoftware,KiCad,Pcbnew,5.1.5+dfsg1-2build2*
G04 #@! TF.CreationDate,2020-07-06T20:33:27+02:00*
G04 #@! TF.ProjectId,Quadsense,51756164-7365-46e7-9365-2e6b69636164,rev?*
G04 #@! TF.SameCoordinates,PX5f5e100PY2faf080*
G04 #@! TF.FileFunction,Soldermask,Top*
G04 #@! TF.FilePolarity,Negative*
%FSLAX46Y46*%
G04 Gerber Fmt 4.6, Leading zero omitted, Abs format (unit mm)*
G04 Created by KiCad (PCBNEW 5.1.5+dfsg1-2build2) date 2020-07-06 20:33:27*
%MOMM*%
%LPD*%
G04 APERTURE LIST*
%ADD10C,3.900000*%
%ADD11R,2.000000X2.000000*%
%ADD12C,2.000000*%
%ADD13C,2.400000*%
%ADD14R,0.750000X1.000000*%
G04 APERTURE END LIST*
D10*
X71010408Y-30610408D03*
X73500000Y-24600000D03*
X71010408Y-18589592D03*
X56500000Y-24600000D03*
X71010408Y-81410408D03*
X73500000Y-75400000D03*
X71010408Y-69389592D03*
X56500000Y-75400000D03*
X40950000Y-91400000D03*
X9050000Y-91400000D03*
X9050000Y-59400000D03*
X40950000Y-59400000D03*
D11*
X28175000Y-35730000D03*
D12*
X26905000Y-38270000D03*
X25635000Y-35730000D03*
X24365000Y-38270000D03*
X23095000Y-35730000D03*
X21825000Y-38270000D03*
D13*
X20425000Y-36470000D03*
D11*
X21825000Y-64270000D03*
D12*
X23095000Y-61730000D03*
X24365000Y-64270000D03*
X25635000Y-61730000D03*
X26905000Y-64270000D03*
X28175000Y-61730000D03*
D13*
X29575000Y-63530000D03*
D11*
X40555000Y-21270000D03*
D12*
X41825000Y-18730000D03*
X43095000Y-21270000D03*
X44365000Y-18730000D03*
X45635000Y-21270000D03*
X46905000Y-18730000D03*
X48175000Y-21270000D03*
X49445000Y-18730000D03*
D13*
X50845000Y-20530000D03*
D10*
X9050000Y-8600000D03*
X40950000Y-8600000D03*
X40950000Y-40600000D03*
X9050000Y-40600000D03*
D14*
X86025000Y-51075000D03*
X86675000Y-51075000D03*
X87325000Y-51075000D03*
X87975000Y-51075000D03*
X87975000Y-48925000D03*
X87325000Y-48925000D03*
X86675000Y-48925000D03*
X86000000Y-48925000D03*
X2025000Y-51075000D03*
X2675000Y-51075000D03*
X3325000Y-51075000D03*
X3975000Y-51075000D03*
X3975000Y-48925000D03*
X3325000Y-48925000D03*
X2675000Y-48925000D03*
X2000000Y-48925000D03*
M02*
