G04 #@! TF.GenerationSoftware,KiCad,Pcbnew,5.1.5+dfsg1-2build2*
G04 #@! TF.CreationDate,2020-07-06T20:33:27+02:00*
G04 #@! TF.ProjectId,Quadsense,51756164-7365-46e7-9365-2e6b69636164,rev?*
G04 #@! TF.SameCoordinates,PX5f5e100PY2faf080*
G04 #@! TF.FileFunction,Soldermask,Bot*
G04 #@! TF.FilePolarity,Negative*
%FSLAX46Y46*%
G04 Gerber Fmt 4.6, Leading zero omitted, Abs format (unit mm)*
G04 Created by KiCad (PCBNEW 5.1.5+dfsg1-2build2) date 2020-07-06 20:33:27*
%MOMM*%
%LPD*%
G04 APERTURE LIST*
%ADD10C,3.900000*%
%ADD11R,1.100000X1.200000*%
%ADD12R,1.200000X1.100000*%
%ADD13R,0.900000X1.400000*%
%ADD14R,2.200000X1.550000*%
%ADD15R,0.850000X1.850000*%
%ADD16R,1.400000X0.900000*%
%ADD17R,0.800000X1.800000*%
%ADD18R,1.800000X1.500000*%
%ADD19R,2.000000X2.000000*%
%ADD20C,2.000000*%
%ADD21C,2.400000*%
%ADD22R,1.100000X0.650000*%
%ADD23R,0.650000X1.100000*%
%ADD24R,3.550000X5.550000*%
%ADD25R,1.000000X1.400000*%
G04 APERTURE END LIST*
D10*
X71010408Y-30610408D03*
X73500000Y-24600000D03*
X71010408Y-18589592D03*
X56500000Y-24600000D03*
D11*
X59600000Y-27100000D03*
X61000000Y-27100000D03*
X70500000Y-73400000D03*
X69100000Y-73400000D03*
D12*
X76000000Y-50700000D03*
X76000000Y-49300000D03*
X54000000Y-56700000D03*
X54000000Y-55300000D03*
D13*
X52050000Y-32300000D03*
X53950000Y-32300000D03*
X53950000Y-29700000D03*
X53000000Y-29700000D03*
X52050000Y-29700000D03*
D11*
X53700000Y-36000000D03*
X52300000Y-36000000D03*
X53700000Y-34000000D03*
X52300000Y-34000000D03*
D12*
X56000000Y-30300000D03*
X56000000Y-31700000D03*
X22300000Y-22800000D03*
X22300000Y-24200000D03*
D11*
X53700000Y-25000000D03*
X52300000Y-25000000D03*
X53700000Y-27000000D03*
X52300000Y-27000000D03*
D12*
X65000000Y-18900000D03*
X65000000Y-20300000D03*
D11*
X59600000Y-75400000D03*
X61000000Y-75400000D03*
D10*
X71010408Y-81410408D03*
X73500000Y-75400000D03*
X71010408Y-69389592D03*
X56500000Y-75400000D03*
D12*
X77000000Y-66300000D03*
X77000000Y-67700000D03*
D14*
X67000000Y-44450000D03*
X67000000Y-41550000D03*
X67000000Y-55550000D03*
X67000000Y-58450000D03*
D15*
X55950000Y-47050000D03*
X55300000Y-47050000D03*
X54650000Y-47050000D03*
X54000000Y-47050000D03*
X53350000Y-47050000D03*
X52700000Y-47050000D03*
X52050000Y-47050000D03*
X52050000Y-52950000D03*
X52700000Y-52950000D03*
X53350000Y-52950000D03*
X54000000Y-52950000D03*
X54650000Y-52950000D03*
X55300000Y-52950000D03*
X55950000Y-52950000D03*
D11*
X55300000Y-42000000D03*
X56700000Y-42000000D03*
X52700000Y-42000000D03*
X51300000Y-42000000D03*
X52700000Y-58000000D03*
X51300000Y-58000000D03*
X55300000Y-58000000D03*
X56700000Y-58000000D03*
X56700000Y-44000000D03*
X55300000Y-44000000D03*
X51300000Y-44000000D03*
X52700000Y-44000000D03*
X51300000Y-56000000D03*
X52700000Y-56000000D03*
X56700000Y-56000000D03*
X55300000Y-56000000D03*
X59700000Y-46000000D03*
X58300000Y-46000000D03*
X59700000Y-48000000D03*
X58300000Y-48000000D03*
X58300000Y-52000000D03*
X59700000Y-52000000D03*
X58300000Y-54000000D03*
X59700000Y-54000000D03*
D12*
X67000000Y-30300000D03*
X67000000Y-28900000D03*
X67000000Y-18900000D03*
X67000000Y-20300000D03*
X63300000Y-71100000D03*
X63300000Y-69700000D03*
X63300000Y-79700000D03*
X63300000Y-81100000D03*
X63000000Y-28900000D03*
X63000000Y-30300000D03*
X63000000Y-20300000D03*
X63000000Y-18900000D03*
X67300000Y-69700000D03*
X67300000Y-71100000D03*
X67300000Y-81100000D03*
X67300000Y-79700000D03*
D11*
X59600000Y-24600000D03*
X61000000Y-24600000D03*
X70500000Y-24600000D03*
X69100000Y-24600000D03*
X70500000Y-75400000D03*
X69100000Y-75400000D03*
D12*
X75000000Y-33700000D03*
X75000000Y-32300000D03*
X75000000Y-66300000D03*
X75000000Y-67700000D03*
X75000000Y-36700000D03*
X75000000Y-35300000D03*
X75000000Y-63300000D03*
X75000000Y-64700000D03*
D11*
X70300000Y-44000000D03*
X71700000Y-44000000D03*
X70300000Y-42000000D03*
X71700000Y-42000000D03*
D12*
X67000000Y-38700000D03*
X67000000Y-37300000D03*
X69000000Y-38700000D03*
X69000000Y-37300000D03*
D11*
X70300000Y-56000000D03*
X71700000Y-56000000D03*
X70300000Y-58000000D03*
X71700000Y-58000000D03*
D12*
X67000000Y-61300000D03*
X67000000Y-62700000D03*
X69000000Y-61300000D03*
X69000000Y-62700000D03*
X64000000Y-42700000D03*
X64000000Y-41300000D03*
X64000000Y-45700000D03*
X64000000Y-44300000D03*
X64000000Y-57300000D03*
X64000000Y-58700000D03*
X64000000Y-54300000D03*
X64000000Y-55700000D03*
D16*
X69700000Y-49050000D03*
X69700000Y-50000000D03*
X69700000Y-50950000D03*
X67100000Y-50950000D03*
X67100000Y-50000000D03*
X67100000Y-49050000D03*
D17*
X63025000Y-22400000D03*
X63675000Y-22400000D03*
X64325000Y-22400000D03*
X64975000Y-22400000D03*
X64325000Y-26800000D03*
X63025000Y-26800000D03*
X63675000Y-26800000D03*
X64975000Y-26800000D03*
X65325000Y-73200000D03*
X66625000Y-73200000D03*
X67275000Y-73200000D03*
X65975000Y-73200000D03*
X65325000Y-77600000D03*
X65975000Y-77600000D03*
X66625000Y-77600000D03*
X67275000Y-77600000D03*
X79975000Y-52200000D03*
X79325000Y-52200000D03*
X78675000Y-52200000D03*
X78025000Y-52200000D03*
X78675000Y-47800000D03*
X79975000Y-47800000D03*
X79325000Y-47800000D03*
X78025000Y-47800000D03*
D11*
X56700000Y-40000000D03*
X55300000Y-40000000D03*
X51300000Y-40000000D03*
X52700000Y-40000000D03*
X51300000Y-60000000D03*
X52700000Y-60000000D03*
X56700000Y-60000000D03*
X55300000Y-60000000D03*
D18*
X67000000Y-27475000D03*
X67000000Y-25725000D03*
X67000000Y-21725000D03*
X67000000Y-23475000D03*
X63300000Y-74275000D03*
X63300000Y-72525000D03*
X63300000Y-76525000D03*
X63300000Y-78275000D03*
D12*
X65000000Y-30300000D03*
X65000000Y-28900000D03*
X65300000Y-71100000D03*
X65300000Y-69700000D03*
X65300000Y-79700000D03*
X65300000Y-81100000D03*
X77000000Y-32300000D03*
X77000000Y-33700000D03*
X77000000Y-36700000D03*
X77000000Y-35300000D03*
X77000000Y-63300000D03*
X77000000Y-64700000D03*
D11*
X66900000Y-47300000D03*
X68300000Y-47300000D03*
D12*
X71600000Y-48900000D03*
X71600000Y-50300000D03*
D11*
X68300000Y-52700000D03*
X66900000Y-52700000D03*
D12*
X49600000Y-25600000D03*
X49600000Y-24200000D03*
D11*
X45700000Y-29900000D03*
X47100000Y-29900000D03*
D10*
X40950000Y-91400000D03*
X9050000Y-91400000D03*
X9050000Y-59400000D03*
X40950000Y-59400000D03*
D19*
X28175000Y-35730000D03*
D20*
X26905000Y-38270000D03*
X25635000Y-35730000D03*
X24365000Y-38270000D03*
X23095000Y-35730000D03*
X21825000Y-38270000D03*
D21*
X20425000Y-36470000D03*
D22*
X47400000Y-47250000D03*
X47400000Y-47750000D03*
X47400000Y-48250000D03*
X47400000Y-48750000D03*
X47400000Y-49250000D03*
X47400000Y-49750000D03*
X47400000Y-50250000D03*
X47400000Y-50750000D03*
D23*
X46500000Y-53400000D03*
X46000000Y-53400000D03*
X45500000Y-53400000D03*
X45000000Y-53400000D03*
X44500000Y-53400000D03*
X44000000Y-53400000D03*
X43500000Y-53400000D03*
D22*
X42600000Y-52750000D03*
X42600000Y-52250000D03*
X42600000Y-51750000D03*
X42600000Y-51250000D03*
X42600000Y-50750000D03*
X42600000Y-50250000D03*
X42600000Y-49750000D03*
X42600000Y-49250000D03*
D23*
X43500000Y-46600000D03*
X44000000Y-46600000D03*
X44500000Y-46600000D03*
X45000000Y-46600000D03*
X45500000Y-46600000D03*
X46000000Y-46600000D03*
X46500000Y-46600000D03*
D24*
X45000000Y-50000000D03*
D22*
X47400000Y-51250000D03*
X47400000Y-52750000D03*
X47400000Y-52250000D03*
X47400000Y-51750000D03*
X42600000Y-47250000D03*
X42600000Y-48750000D03*
X42600000Y-47750000D03*
X42600000Y-48250000D03*
D12*
X23900000Y-19300000D03*
X23900000Y-20700000D03*
X25500000Y-19300000D03*
X25500000Y-20700000D03*
X84400000Y-53300000D03*
X84400000Y-54700000D03*
X15900000Y-19300000D03*
X15900000Y-20700000D03*
X86000000Y-53300000D03*
X86000000Y-54700000D03*
X17500000Y-19300000D03*
X17500000Y-20700000D03*
D11*
X41200000Y-48300000D03*
X39800000Y-48300000D03*
D12*
X17500000Y-24200000D03*
X17500000Y-22800000D03*
X19100000Y-24200000D03*
X19100000Y-22800000D03*
D11*
X40400000Y-14100000D03*
X41800000Y-14100000D03*
D12*
X18500000Y-62300000D03*
X18500000Y-63700000D03*
X31500000Y-37700000D03*
X31500000Y-36300000D03*
D11*
X41200000Y-46700000D03*
X39800000Y-46700000D03*
D16*
X22000000Y-19050000D03*
X22000000Y-20000000D03*
X22000000Y-20950000D03*
X19400000Y-20950000D03*
X19400000Y-19050000D03*
D19*
X21825000Y-64270000D03*
D20*
X23095000Y-61730000D03*
X24365000Y-64270000D03*
X25635000Y-61730000D03*
X26905000Y-64270000D03*
X28175000Y-61730000D03*
D21*
X29575000Y-63530000D03*
D19*
X40555000Y-21270000D03*
D20*
X41825000Y-18730000D03*
X43095000Y-21270000D03*
X44365000Y-18730000D03*
X45635000Y-21270000D03*
X46905000Y-18730000D03*
X48175000Y-21270000D03*
X49445000Y-18730000D03*
D21*
X50845000Y-20530000D03*
D25*
X44050000Y-24250000D03*
X45950000Y-24250000D03*
X45000000Y-26550000D03*
D12*
X27100000Y-20700000D03*
X27100000Y-19300000D03*
X48000000Y-25600000D03*
X48000000Y-24200000D03*
D11*
X42900000Y-31500000D03*
X44300000Y-31500000D03*
X45700000Y-31500000D03*
X47100000Y-31500000D03*
X42900000Y-29900000D03*
X44300000Y-29900000D03*
X42900000Y-28300000D03*
X44300000Y-28300000D03*
X45700000Y-28300000D03*
X47100000Y-28300000D03*
D10*
X9050000Y-8600000D03*
X40950000Y-8600000D03*
X40950000Y-40600000D03*
X9050000Y-40600000D03*
D11*
X41200000Y-49900000D03*
X39800000Y-49900000D03*
D12*
X4000000Y-53300000D03*
X4000000Y-54700000D03*
X5600000Y-53300000D03*
X5600000Y-54700000D03*
D18*
X15500000Y-23025000D03*
X15500000Y-24775000D03*
M02*
